<?xml version="1.0" encoding="UTF-8"?>
<svg id="Layer_1" xmlns="http://www.w3.org/2000/svg" xmlns:xlink="http://www.w3.org/1999/xlink" version="1.1" viewBox="0 0 1024 1024">
  <!-- Generator: Adobe Illustrator 29.8.2, SVG Export Plug-In . SVG Version: 2.1.1 Build 3)  -->
  <defs>
    <style>
      .st0, .st1 {
        fill: #4894bb;
      }

      .st2 {
        fill: #7f805e;
      }

      .st3 {
        fill: #e29f66;
      }

      .st4 {
        fill: #e7ad50;
      }

      .st5 {
        fill: #688395;
      }

      .st6 {
        fill: #3a99a1;
      }

      .st1, .st7, .st8, .st9, .st10, .st11, .st12, .st13, .st14, .st15, .st16, .st17, .st18, .st19, .st20, .st21 {
        display: none;
      }

      .st22 {
        fill: url(#linear-gradient1);
      }

      .st23 {
        fill: #d7eaf0;
      }

      .st24, .st21 {
        fill: #718c37;
      }

      .st25 {
        fill: #e5af71;
      }

      .st7, .st26 {
        fill: #bea593;
      }

      .st8, .st27 {
        fill: #2e85a7;
      }

      .st9, .st28 {
        fill: #5b9baa;
      }

      .st10, .st29 {
        fill: #cdcfe2;
      }

      .st30, .st19 {
        fill: #b7d9e4;
      }

      .st31 {
        fill: #bfcbcd;
      }

      .st32 {
        fill: none;
        stroke-linejoin: round;
      }

      .st32, .st33 {
        stroke: #036f50;
        stroke-linecap: round;
        stroke-width: 97px;
      }

      .st34 {
        fill: #5a899a;
      }

      .st11, .st35 {
        fill: #8cafc1;
      }

      .st36 {
        fill: #d6baa7;
      }

      .st37 {
        fill: #7596a3;
      }

      .st38 {
        fill: #cade5e;
      }

      .st39 {
        fill: url(#linear-gradient);
      }

      .st40, .st18 {
        fill: #1e6b82;
      }

      .st41 {
        fill: #93acb0;
      }

      .st42, .st17 {
        fill: #c5d6ef;
      }

      .st43 {
        fill: #abcdcb;
      }

      .st44 {
        fill: #79bac8;
      }

      .st12, .st45 {
        fill: #abc14c;
      }

      .st46 {
        fill: #d89c4d;
      }

      .st13, .st47 {
        fill: #fff;
      }

      .st14, .st48 {
        fill: #b1c7d8;
      }

      .st49 {
        fill: #fbd586;
      }

      .st50, .st15 {
        fill: #3680ae;
      }

      .st51 {
        fill: #2f72a0;
      }

      .st52, .st16 {
        fill: #97ab4c;
      }

      .st53 {
        fill: #21a3b8;
      }

      .st54 {
        fill: #dededd;
      }

      .st55 {
        fill: #b9955b;
      }

      .st56 {
        fill: #277e92;
      }

      .st57 {
        fill: #cfcdc3;
      }

      .st58 {
        fill: #67bcc1;
      }

      .st59 {
        fill: #64a8c5;
      }

      .st60 {
        fill: #258d9f;
      }

      .st61 {
        fill: #a2a9ad;
      }

      .st62 {
        fill: #b87b3b;
      }

      .st63 {
        fill: #b1b2ac;
      }

      .st64 {
        fill: #deb87b;
      }

      .st33 {
        fill: #036f50;
      }

      .st65 {
        fill: #fdd198;
      }

      .st66 {
        fill: #798a8d;
      }

      .st67 {
        fill: #fef2ca;
      }

      .st68 {
        fill: #fce2a9;
      }

      .st69 {
        fill: #4f634d;
      }

      .st70 {
        fill: #e6d2c6;
      }

      .st71 {
        fill: #617d79;
      }

      .st72 {
        fill: #97c8d8;
      }

      .st73 {
        fill: #74a38d;
      }

      .st74 {
        fill: #f1e9e0;
      }
    </style>
    <linearGradient id="linear-gradient" x1="346.5" y1="124.8" x2="389.21" y2="216.94" gradientTransform="translate(0 232)" gradientUnits="userSpaceOnUse">
      <stop offset="0" stop-color="#fcdea1"/>
      <stop offset="1" stop-color="#ecb365"/>
    </linearGradient>
    <linearGradient id="linear-gradient1" x1="536.49" y1="144.87" x2="527.63" y2="209.35" gradientTransform="translate(0 232)" gradientUnits="userSpaceOnUse">
      <stop offset="0" stop-color="#da9d3b"/>
      <stop offset="1" stop-color="#cd863e"/>
    </linearGradient>
  </defs>
  <rect class="st20" width="1024" height="1024"/>
  <g id="Merged">
    <g id="Generative_Object">
      <path class="st9" d="M401.42,710.51h-10.73c-.57-1.43,1.38-2.03,1.43-2.15l9.66.72-.36,1.43h0Z"/>
      <path class="st42" d="M575.93,449.46l1.43,1.07c.31,9.75-.42,19.58,0,29.32.01.3,1.38.91,1.43,1.79,0,.11-1.45,1.46-1.43,1.79.11,1.45,2.21,3.68.72,6.79-15.25-.07-30.53.05-45.77,0,.23-2.2.65-4.12.72-6.44.08-2.85-.06-5.73,0-8.58,9.93-3.3,10.33-16.78-.72-18.6,1.19-2.77,4.11-4.98,5.72-7.15h37.91,0Z"/>
      <g>
        <path class="st13" d="M711.1,682.61c-4.4-1.38-9.3-.53-13.59.72,1.17-45.97,1.75-91.78-1.43-137.68-3.87-2.4-7.2-4.96-11.44-6.79-.09-.04-.18-1.06-1.43-1.43l2.15-76.17-35.76-18.95c-.18-3.97,1.87-19.48-2.86-18.6-.44-3.76-.38-9.77-1.43-13.23-.68-2.24-2.2-.97-2.86-3.22-1.37-4.68-2.39-9.57-3.58-14.3-1.27-5.06-1.54-10.63-2.86-15.73-.24-.94-.47-1.92-.72-2.86-1.52-5.77-3.4-11.44-5.01-17.16-1.69-6.01-3.16-11.89-5.01-17.88-.39-1.26-1.08-2.45-1.43-3.58-1.47-4.68-3.51-9.05-5.01-13.59-.58-1.77-1.91-3.53-2.15-4.29-5.01-16.32-2.08-36.33-3.93-53.64-2.74,16.92-.2,34.06-3.93,50.78-.31,1.4-1.99,2.76-2.15,3.22-.39,1.17,2.61.09,1.43,2.86-.48,1.13-3.48,1.26-3.58,1.43-2.71,4.58-4.63,13.02-6.44,18.24-2.37,6.86-4.42,13.78-6.44,20.74-.11.39.11,1.04,0,1.43-1.59,5.47-5.26,12.21-4.29,17.16-2.35,3.32-3.28,20.74-3.58,25.75-4.94,3.19-3.52,12.28-4.29,17.88-.02.12-2.12.87-2.15,1.07-.73,6.5.23,14.66,0,21.46-.04,1.31.72,3.53-1.43,3.22h-37.91c23.48-31.78,44.11-71.39-1.43-95.84-3.73-2.11-5.83-2.77-10.01-3.58-9.92-1.9-16.64-.79-26.46-.72-2.89-2.78-5.29-4.28-8.58-6.44-14.41-9.43-29.83-12.37-46.85-9.3-2.16.39-15.58,4.72-16.81,5.72-.96-1.77-1.09-14.03-.72-14.66s4.63-.71,5.36-1.07c19.34-9.48,19.47-30.77,1.07-41.48-2.33-1.36-4.99-1.58-7.15-3.22l-2.86-44.34c-.77,5.47-.66,43.36-2.15,45.06-.42.48-8.78,2.32-11.8,4.65-9.9,7.63-10.29,21.2-3.22,30.75,3.98,5.38,8.22,6.58,13.59,10.01-1.04,3,.77,11.98,0,15.73-3.44-2.69-19.72-7.41-24.32-7.87-9.58-.96-16.84.03-25.75,2.86-8.07,2.56-16.85,7.64-22.89,13.59-18.89-4.3-41.88,4.02-53.64,19.67-23.49,31.25,3.5,63.08,22.89,87.61-11.45,2.01-9.83,16.2.72,19.31-1.54,2.78-.19,6.54,0,9.3.31,4.64-.55,6.68,2.86,10.73l-20.74,23.24c1.62-9.91,2.03-11.46-7.87-14.3l2.15-48.63-5.01-5.36c.18-3.83.07-7.64.72-11.44.04-.24,2.26-.45,2.15-1.79-.2-2.46-30.73-30.65-33.61-36.12-3.34-11.1-1.33-24.51-2.5-36.48l-2.5,36.48c-2.54,6.32-34.82,33.61-35.05,36.12-.04.44,2.04,4.21,2.15,8.22.02.84,0,1.92,0,2.86.03,2.37.02,4.78,0,7.15v2.15c0,2.38.02,4.78,0,7.15v2.86c-.12,16.97-.34,33.7,0,50.78.09,4.28-.13,8.6,0,12.87l-40.77,13.95v122.66c-.11.11.33,2.48-1.07,2.86-2.75.75-9.41-2.96-13.23,3.93-3.05,5.5.24,10.9,0,11.44-.31.71-10.27,6.01-12.16,9.66l-.72-519.6,2.5-3.22,557.15.72c1.08,144.98,1.52,290.13,1.07,435.2-.07,24.33-1.62,49-1.43,73.31h.03,0Z"/>
        <g>
          <path class="st42" d="M603.46,198.42c12.34-1.33,17.35,6.45,17.88,17.88,13.66-21.14,42.34,1.73,35.4,22.53,9.43-6.4,22.98-.13,25.03,10.73l-143.4.36c-1.71-.92,8.01-21.44,20.03-18.6,1.47.35,4.03,3.68,4.29,3.58.66-.27,1.86-8.82,7.87-11.44,4.42-1.94,11.8-.63,13.59-1.43,2.15-.96.56-7.74,1.07-9.66,1.67-6.23,12-13.27,18.24-13.95h0Z"/>
          <path class="st42" d="M333.11,232.03c16.34-1.61,23.87,18.19,25.03,31.47,7.44-7.15,18.84,1,20.74,9.3l-129.45.72c-11.9-14.86,17.18-13.31,18.6-14.3.65-.46.22-7.79,9.3-9.3,2.6-.43,10.22.89,10.73.72,1.03-.37.69-11.53,10.01-15.02,6.66-2.49,12.5-.79,18.6,2.15,1.08.52,3,3.92,4.29,3.58.76-.2,4.7-8.56,12.16-9.3v-.02h-.01Z"/>
          <path class="st42" d="M461.85,194.84c12.94-2.14,20.83,6.55,22.89,18.6l5.01-4.29c3.48,1.58,10.69,16.21,7.15,17.88l-100.49-1.07c1.16-7.28,12.42-15.04,18.24-8.94.14-18.03,25.47-31.2,35.05-12.16,1.52-4.28,7.93-9.31,12.16-10.01h0Z"/>
          <path class="st42" d="M215.1,299.26c11.42-2,16.47,8.28,17.88,17.88,5.65-9.56,19.98-8.33,23.96,1.79,1.15,2.93,1.12,10.29,1.43,10.73.49.69,14.26-.65,15.02,5.72l-88.33,1.07c-5.85-13.07,10.14-29.85,20.03-15.02-.17-7.31.75-20.55,10.01-22.17h0Z"/>
          <path class="st42" d="M524.07,274.94c14.93-1.58,16.05,12.14,10.37,22.53.09,1.74,7.49-1.38,8.58,2.15l-1.07,3.22-71.88-1.07c-.48-3.38,15.81-5.55,16.81-6.08,2.53-1.34,9.47-12.08,17.16-14.3,4.74-1.37,7.38.77,7.87.72.71-.08,6.51-6.55,12.16-7.15v-.02h0Z"/>
          <path class="st17" d="M670.69,334.31c4.88-.05,6.71,4.89,7.15,5.01,1.26.34,5.35-7.58,14.3-2.86,6.44,3.4,2.63,7.24,3.22,8.94.15.42,5.43,3.2,5.72,6.44-6.35-.65-48.48,2.07-51.14.36-2.84-1.82-2.05-11.12,1.43-12.16,4.11-1.23,8.63,3.88,9.3,3.58s2.45-9.23,10.01-9.3h.01Z"/>
          <path class="st42" d="M698.29,347.66c-1.42-1.21-2.85-2.05-2.93-2.27-.59-1.7,3.22-5.54-3.22-8.94-8.95-4.72-13.05,3.2-14.3,2.86-.45-.12-2.28-5.05-7.15-5.01-7.57.07-9.35,9-10.01,9.3-.67.3-5.18-4.81-9.3-3.58-3.48,1.04-4.27,10.34-1.43,12.16,2.4,1.54,36.99-.52,48.35-.46,4.12.02,3.17-1.36,0-4.06h-.01Z"/>
          <path class="st4" d="M433.6,282.1c18.4,10.71,18.27,32.01-1.07,41.48-.74.36-4.97.41-5.36,1.07s-.24,12.9.72,14.66c-.53.44-1.25.88-1.43,1.43-4.95.34.69-20.34-3.93-16.45-1.22,6.16.95,12.16-1.07,17.88-.23-.33-1.01-1.1-1.43-1.43.77-3.75-1.04-12.73,0-15.73,1.34-3.88,6.24-1.25,8.94-2.15,18.21-6.04,20.99-31.06,3.93-40.05.02-.05-1.6-.86.72-.72h-.02Z"/>
          <path class="st60" d="M616.69,317.86c-1.67.58-5-.59-6.44-1.43-1.08-.63-.45-1.35-1.43-1.43,3.73-16.72,1.2-33.86,3.93-50.78,1.85,17.31-1.08,37.32,3.93,53.64h.01Z"/>
          <path class="st31" d="M257.66,401.54c-2.53.74-2.38,1.91-5.01,0l2.5-36.48c1.17,11.96-.84,25.37,2.5,36.48h0Z"/>
        </g>
      </g>
      <path class="st47" d="M469.36,362.92c6.22,1.79,16.73,9.52,17.88,16.09,3.96,22.58-33.15,61.19-47.92,76.88-.57,0-.76.72-2.15.72l.72-87.97c12.2-4.58,16.55-10.02,31.47-5.72h0Z"/>
      <path class="st47" d="M399.27,362.2c3.49.9,7.74,5.24,10.73,6.44l.72,87.26h-3.58v-39.69c-.71-1.61-12.9-1.29-15.02-1.07-1.75.18-3.74-.7-5.01,1.07v15.38c-10.48-13.48-33.12-41.09-22.17-58.29,6.16-9.68,23.72-13.83,34.33-11.09h0Z"/>
      <path class="st47" d="M506.55,500.23l-3.93,5.01c-1.14-.5,1.9-5.07-1.79-3.93.99,8.27-4.08,17.24-8.58,23.96v-25.75c4.57.15,9.88.78,14.3.72h0Z"/>
      <g>
        <path class="st29" d="M319.88,495.94c5.35,6.36,18.56,4.23,26.46,4.29-.14,14.29.18,28.62,0,42.91-.06,4.46,2.35,16.17-2.86,14.66l-2.86,105.14,5.72,1.79c-6.12.64-12.02-1.01-17.88,1.43l-.72-75.1-.72-.72c2.94-9.61-22.21-9.12-25.39-7.87-1.51.6-2.34,5.53-2.5,7.15-.55.02-.82.62-2.15.72l1.07-7.15c-3.51.6-7.15-.52-10.37-.72.06-15.69-.01-31.48,0-47.2,0-2.85-.01-5.73,0-8.58.02-3.54-.02-7.19,0-10.73.02-2.61-.02-5.25,0-7.87v-1.43c.03-2.85-.02-5.73,0-8.58v-2.15c.03-3.19.68-6.14.72-9.3.01-1.19-.01-2.39,0-3.58v-.72c.06-5.01-.09-10.03,0-15.02.04-2.09-.72-2.03-.72-2.15.08-4.61.5-9.64.72-14.3l5.01,5.36-2.15,48.63c9.89,2.84,9.49,4.4,7.87,14.3l20.74-23.24v.03h0Z"/>
        <path class="st29" d="M219.75,533.85c.14,3.62.52,7.89,1.43,11.44v10.73c-.44,14.98-.53,30.07-.72,45.06,0,.57.73.76.72,2.15-.02,2.43-.7,5.2-.72,7.87v5.01c-.08,9.5-.24,19.1-.72,28.61-2.63.17-9.7,1.53-11.8,2.86-2.9,1.83-3.65,5.86-3.93,6.08-7.52,5.91-17.9,7.45-25.03,14.66v-122.66l40.77-13.95c.02.71-.03,1.44,0,2.15h0Z"/>
        <g>
          <path class="st60" d="M328.46,666.16c-2.82,1.18-15.75,15.98-16.45,18.6-7.9,1.05-2.98-2.12-4.29-6.79-3.28-11.73-11.58-6.87-16.81-8.94-2.42-.96-1.62-15.58-16.09-10.73,4.61-4.29,2.74-8.93,3.58-14.3,2.31-14.89,4.79-27.72,5.72-42.2,5.49-.6,41.71,1.23,42.91-1.07.97-1.86-1.59-7.55.72-9.66l.72,75.1h0Z"/>
          <path class="st53" d="M278.4,643.99c-.84,5.37,1.04,10.01-3.58,14.3-2.39.8-2.51,4.63-5.01,1.07-.1-1.53.15-3.13,0-4.65-.25-2.45.07-5.33,0-7.87-.03-.95.02-1.91,0-2.86h8.59Z"/>
          <path class="st28" d="M327.03,590.35l.72.72c-2.3,2.11.26,7.8-.72,9.66-1.2,2.3-37.42.47-42.91,1.07.22-3.44-.63-7.03.72-10.37,2.43-.18,4.78-.68,7.15-1.07,1.47-.24,3.41.11,5.01,0,1.32-.09,1.6-.69,2.15-.72,8.99-.39,18.75,1.76,27.89.72h0Z"/>
          <path class="st61" d="M327.03,590.35c-9.14,1.05-18.9-1.1-27.89-.72.17-1.62.99-6.55,2.5-7.15,3.18-1.25,28.33-1.74,25.39,7.87h0Z"/>
          <path class="st47" d="M287.7,582.48c3.22.2,6.86,1.31,10.37.72l-1.07,7.15c-1.6.11-3.53-.24-5.01,0-6.06-.13-12.17.18-18.24,0-1.31-.04-3.53.72-3.22-1.43,2.32-8.1,10.33-6.86,17.16-6.44h.01Z"/>
          <path class="st53" d="M291.99,590.35c-2.37.39-4.72.9-7.15,1.07-1.34,3.34-.49,6.93-.72,10.37-.93,14.48-3.41,27.3-5.72,42.2h-8.58c-.23-11.6-1.92-45.88.72-55.07-.31,2.15,1.91,1.39,3.22,1.43,6.07.18,12.17-.13,18.24,0h-.01Z"/>
        </g>
        <g>
          <path class="st28" d="M283.41,438.73c1.63,0,4.58-.57,5.72.72-.65,3.81-.54,7.61-.72,11.44-.21,4.67-.63,9.7-.72,14.3-10.97.46-21.98-.68-32.9-.72.98-7.26-.87-15.14-.72-22.17.03-1.18-.02-2.39,0-3.58l.72-.72c9.47.91,19.09.68,28.61.72h0Z"/>
          <path class="st44" d="M257.66,401.54c2.89,5.47,33.41,33.66,33.61,36.12.11,1.33-2.1,1.55-2.15,1.79-1.14-1.28-4.09-.71-5.72-.72,1.12-1.52.19-1.45-.72-2.5-8.73-10.09-18.6-19.43-27.18-29.68l-1.43-1.07c-2.38,8.26-24.45,25.41-26.46,30.75-1.29,3.43,1.77,2.45,4.29,2.5l2.86,5.72c-.07,0,.23,1.42-.36,1.43-4.88.08-9.78-.06-14.66,0-.1-4.01-2.18-7.79-2.15-8.22.22-2.51,32.5-29.8,35.05-36.12,2.62,1.91,2.47.74,5.01,0h0Z"/>
          <path class="st30" d="M227.62,527.41c.06.67-.8,5.09-.72,7.15.02.59.68.78.72,2.15.05,2.3-.76,5.19-.72,7.87,0,.91.71,2.45.72,2.86.02,2.29-.74,5.61-.72,8.58,0,1.29.71,1.58.72,2.86,0,2.63-.71,5.72-.72,8.58,0,1.29.72,1.57.72,2.86v11.44c0,2.8.04,5.83,0,8.58,0,.58-.71.77-.72,2.15-.02,2.61,0,5.25,0,7.87-1.65-.01-4.29,1.38-6.44.72.19-14.99.27-30.08.72-45.06.09-3-.03-5.69,0-8.58v-2.15c-.05-2.6,1.76-9.71-1.43-11.44-.03-.71.02-1.44,0-2.15-.13-4.27.09-8.6,0-12.87,6.33,1.02,7.35,2.88,7.87,8.58Z"/>
          <path class="st30" d="M229.05,464.47c3.03-.02,6.24,0,9.3,0h16.45c10.92.03,21.93,1.18,32.9.72,0,.11.75.06.72,2.15-11.36.94-22.94.81-34.33.72-11.41-.1-22.89-1.38-34.33,0v-2.86c2.36.74,6.13-.71,7.87-.72h1.43,0Z"/>
          <path class="st44" d="M227.62,464.47c-1.74,0-5.51,1.45-7.87.72.02-2.38,0-4.78,0-7.15,6.72-.13,9.18-1.12,7.87,6.44h0Z"/>
          <path class="st44" d="M219.75,455.89c.02-2.37.03-4.78,0-7.15,6.92.2,8.88-.8,7.51,7.15h-7.51Z"/>
          <path class="st27" d="M265.53,653.29c-2.39-.45-6.05-.53-8.58-.72-.7-.05-1.44.04-2.15,0-.05-13.83,0-27.67,0-41.48v-18.6c4.43,1.6,8.98-1.49,11.44,2.5l-.72,58.29h0Z"/>
          <path class="st72" d="M227.62,637.55c0,.63.02,2.43,0,2.86,0,.26-1.44,3.01-.72,4.29-2.1-.18-5.03-.14-7.15,0,.48-9.5.64-19.11.72-28.61,2.16-1.54,3.69-2.51,6.44-2.86.53,6.7-.78,13.76-.72,20.38,0,.21,1.43,3.72,1.43,3.93h0Z"/>
          <path class="st59" d="M236.92,646.85c-3.04-.6-7.26-1.91-10.01-2.15-.72-1.28.7-4.04.72-4.29l9.66-.72c.6.42,1.16,6.45-.36,7.15h-.01Z"/>
          <path class="st34" d="M288.41,467.34c-.09,4.99.06,10.01,0,15.02l-33.61-1.43c-.02-4.17.56-8.89-.72-12.87,11.39.1,22.97.23,34.33-.72Z"/>
          <path class="st28" d="M288.41,486.65c-.04,3.16-.69,6.11-.72,9.3-4.24-.05-9.97,1.52-8.58-4.65,1.73-7.69,2.5-3.66,9.3-4.65Z"/>
          <path class="st28" d="M287.7,498.09c-.02,2.85.03,5.73,0,8.58l-8.58-1.07c.84-1.48.44-7.06,1.07-7.51.95-.67,5.82.85,7.51,0h0Z"/>
          <path class="st28" d="M287.7,535.28c-1.75-.32-7.86.88-8.58-1.07-.12-.32.78-6.62,1.07-6.79,1.05-.63,5.85.88,7.51-.72-.01,2.85,0,5.73,0,8.58h0Z"/>
          <path class="st30" d="M226.91,603.22v7.87c-2.12-.13-4.35-.45-6.44,0,.02-2.67.69-5.43.72-7.87,1.69.51,3.85.06,5.72,0Z"/>
          <path class="st30" d="M221.18,545.29c-.91-3.55-1.29-7.82-1.43-11.44,3.19,1.73,1.38,8.85,1.43,11.44Z"/>
          <path class="st30" d="M221.18,556.02v-8.58c-.03,2.9.09,5.59,0,8.58Z"/>
          <path class="st59" d="M227.62,637.55c0-.21-1.43-3.72-1.43-3.93-.06-6.62,1.25-13.69.72-20.38,2.17-.28,7.92.86,10.73.36v23.6l-10.01.36h-.01Z"/>
          <path class="st30" d="M254.8,529.56v81.52h-2.15c.25-2.48-.69-5.5-.72-7.87v-1.43c-.02-2.83.02-5.71,0-8.58-.06-8.31,0-16.71,0-25.03v-11.44c0-3.06-.04-6.26,0-9.3.07-4.55-.23-10.51,0-14.66.1-1.71-.23-4.05,2.86-3.22h0Z"/>
          <path class="st28" d="M251.94,558.17v10.01c-8.92-.12-11.85,2.09-12.16-8.22l1.07-1.79h11.09Z"/>
          <path class="st28" d="M251.94,547.44c-.04,3.04,0,6.24,0,9.3-8.47-.04-12.36,1.63-12.16-8.22l12.16-1.07h0Z"/>
          <path class="st28" d="M251.94,593.21c.02,2.87-.02,5.75,0,8.58-8.48-.81-14.27,1.18-11.09-9.3l11.09.72Z"/>
          <path class="st59" d="M227.62,590.35c.04-2.75,0-5.79,0-8.58,1.69.86,8.52-.86,8.94-.72,2,.68.35,8.01,1.07,9.66l-10.01-.36h0Z"/>
          <path class="st28" d="M251.94,603.22c.02,2.36.96,5.39.72,7.87-7.59,0-15.22,1.98-11.8-8.58l11.09.72h0Z"/>
          <path class="st59" d="M227.62,578.91v-8.58c1.63.34,9-.47,9.66,0,.8.57-.23,7.46.36,8.94l-10.01-.36h-.01Z"/>
          <path class="st59" d="M226.91,567.46c0-2.87.72-5.95.72-8.58,1.63.34,9-.47,9.66,0,.8.57-.23,7.46.36,8.94l-10.73-.36h-.01Z"/>
          <path class="st59" d="M226.91,611.09v-7.87c2.32-.07,7.7-.68,9.66,0,1.16.4,1.31,7.89,1.07,8.22-.6.85-9.03-.25-10.73-.36h0Z"/>
          <path class="st59" d="M226.91,556.02c-.03-2.98.74-6.29.72-8.58,9.28,1.35,10.58-1.71,10.01,8.94l-10.73-.36Z"/>
          <path class="st59" d="M226.91,544.58c-.04-2.67.77-5.57.72-7.87,8.51,1.32,10.84-2.77,10.01,8.22-1.3,2.17-8.25-.68-10.73-.36h0Z"/>
          <path class="st59" d="M226.91,600.36c0-2.61-.02-5.25,0-7.87l10.37.72.36,7.51c-.72,1.84-8.93-.35-10.73-.36Z"/>
          <path class="st59" d="M226.91,534.56c-.08-2.06.78-6.48.72-7.15h9.66l.36,7.51-10.73-.36h-.01Z"/>
          <g>
            <path class="st35" d="M254.08,468.05c1.28,3.98.7,8.71.72,12.87v2.86c.04,15.25,0,30.53,0,45.77-3.09-.83-2.76,1.5-2.86,3.22-.23,4.15.07,10.12,0,14.66l-12.16,1.07c-.21,9.85,3.69,8.18,12.16,8.22v1.43h-11.09l-1.07,1.79c.31,10.31,3.24,8.11,12.16,8.22,0,8.32-.06,16.72,0,25.03l-11.09-.72c-3.18,10.48,2.61,8.48,11.09,9.3v1.43l-11.09-.72c-3.42,10.56,4.22,8.58,11.8,8.58h2.15c0,13.81-.05,27.65,0,41.48-.18-.01-3.05,1.47-3.22,1.43-.83-.2-4.16-5.55-7.15-6.44-3.02-.9-4.23-.07-7.51-.72,1.52-.7.95-6.74.36-7.15l-9.66.72c.02-.43,0-2.23,0-2.86l10.01-.36v-23.6c-2.81.5-8.56-.64-10.73-.36-2.74.35-4.28,1.32-6.44,2.86v-5.01c2.09-.45,4.32-.13,6.44,0,1.7.11,10.12,1.21,10.73.36.24-.34.08-7.82-1.07-8.22-1.96-.68-7.33-.07-9.66,0-1.87.06-4.03.51-5.72,0,0-1.38-.72-1.58-.72-2.15,2.15.67,4.79-.73,6.44-.72,1.8.01,10.01,2.19,10.73.36l-.36-7.51-10.37-.72c0-1.38.71-1.57.72-2.15l10.01.36c-.73-1.64.93-8.97-1.07-9.66-.42-.14-7.25,1.57-8.94.72v-2.86l10.01.36c-.58-1.48.45-8.37-.36-8.94-.66-.47-8.02.34-9.66,0,0-1.29-.72-1.57-.72-2.86l10.73.36c-.58-1.48.45-8.37-.36-8.94-.66-.47-8.02.34-9.66,0,0-1.28-.7-1.57-.72-2.86l10.73.36c.57-10.65-.74-7.59-10.01-8.94,0-.41-.7-1.95-.72-2.86,2.47-.32,9.43,2.53,10.73.36.83-11-1.51-6.9-10.01-8.22-.03-1.37-.69-1.56-.72-2.15l10.73.36-.36-7.51h-9.66c-.52-5.7-1.53-7.56-7.87-8.58-.34-17.08-.12-33.81,0-50.78,11.44-1.38,22.92-.1,34.33,0l.03.03h0Z"/>
            <g>
              <path class="st59" d="M227.26,486.65h10.01l.36,8.94c-8.51.96-12.77.86-10.37-8.94Z"/>
              <path class="st59" d="M227.26,498.09h9.3c1.48.85,1.39,6.8,1.07,7.51-.74,1.65-9.95.66-10.37.36-.59-.42-.59-7.45,0-7.87h0Z"/>
              <path class="st59" d="M229.41,508.1c7.54-2.22,9.78,1.65,7.87,8.58-.42.3-10.07-.65-10.37-1.07-1.02-1.44-.42-6.65,2.5-7.51h0Z"/>
              <path class="st0" d="M229.41,480.92c1.08-.11,19.7.48,20.74.72,1.14.26,2.44-.18,2.5,1.79-2.49.29-27.75,1.36-26.11-1.07.45-.35,2.7-1.41,2.86-1.43h0Z"/>
              <path class="st27" d="M240.14,518.83c.59-.32,11.88.06,11.8,1.79-.95,2.24-15.59.26-11.8-1.79Z"/>
            </g>
          </g>
          <path class="st63" d="M283.41,438.73c-9.51-.03-19.14.2-28.61-.72l.72-31.47c8.58,10.25,18.45,19.59,27.18,29.68.91,1.05,1.83.98.72,2.5h-.01Z"/>
          <path class="st57" d="M255.51,406.54l-.72,31.47-.72.72c-3.78-.35-7.63.08-11.44,0-3.61-.07-7.21.08-10.73,0-2.53-.06-5.58.93-4.29-2.5,2.01-5.35,24.08-22.49,26.46-30.75l1.43,1.07h0Z"/>
          <path class="st44" d="M254.08,438.73c-.02,1.18.03,2.39,0,3.58-3.39,7.77-7.11,2.98-12.87,2.86l1.43-6.44c3.82.08,7.66-.35,11.44,0h0Z"/>
          <path class="st30" d="M242.64,438.73l-1.43,6.44c-2.74-.06-4.99-.71-6.44-.72l-2.86-5.72c3.51.08,7.12-.07,10.73,0Z"/>
          <path class="st28" d="M251.94,464.47h-11.44c.2-6.17-1.76-6.5,4.65-6.44,5.19.05,8.08.57,6.79,6.44h0Z"/>
          <path class="st59" d="M238.35,464.47c-3.05,0-6.27-.02-9.3,0l.72-6.08c5.22.16,9.98-1.1,8.58,6.08Z"/>
          <g>
            <path class="st30" d="M254.8,464.47h-2.86c1.28-5.86-1.6-6.39-6.79-6.44-6.41-.06-4.45.27-4.65,6.44h-2.15c1.4-7.18-3.36-5.92-8.58-6.08l-.72,6.08h-1.43c1.32-7.56-1.15-6.57-7.87-6.44v-2.15h7.51c1.37-7.95-.59-6.95-7.51-7.15,0-.94.02-2.02,0-2.86,4.88-.06,9.78.08,14.66,0,.58,0,.28-1.43.36-1.43,1.44,0,3.7.66,6.44.72,5.76.12,9.49,4.91,12.87-2.86-.15,7.03,1.7,14.91.72,22.17h0Z"/>
            <path class="st59" d="M241.57,448.74c.42-.19,8.87-.19,9.3,0,.73.32,1.98,6.5,1.79,6.79-.39.58-11.04,1.21-11.8.36-.69-.77-.82-6.47.72-7.15h0Z"/>
            <path class="st59" d="M230.84,448.74c2.94-1.44,10.24,1.56,7.51,6.79-5.45,3.38-12.53-4.33-7.51-6.79Z"/>
          </g>
          <path class="st27" d="M254.8,579.62v-10.01c10.69.92,11.77-2.65,11.44,9.66l-11.44.36h0Z"/>
          <path class="st27" d="M254.8,568.18v-10.01c10.77,1.42,11.83-2.94,11.44,9.66l-11.44.36h0Z"/>
          <path class="st27" d="M254.8,556.74v-10.01c9.47,1.63,11.86-1.96,11.44,9.66l-11.44.36h0Z"/>
          <path class="st27" d="M254.8,589.64v-8.58c1.73,1.02,9.89-.19,10.37,0,3.28,1.26-.24,16.25-10.37,8.58h0Z"/>
          <path class="st27" d="M254.8,545.29v-5.72c1.4-3.64,7.12-1.81,10.37-2.86,1.37.78.3,7.56,0,9.3l-10.37-.72h0Z"/>
          <g>
            <path class="st37" d="M288.41,483.07c-.01,1.19.01,2.39,0,3.58-6.8.99-7.57-3.04-9.3,4.65-1.39,6.16,4.35,4.6,8.58,4.65v2.15c-1.69.85-6.56-.67-7.51,0-.63.45-.23,6.03-1.07,7.51l8.58,1.07v1.43c-7.66-.71-8.5.09-8.58,7.51l8.58.36c-.02,3.54.02,7.19,0,10.73-1.66,1.6-6.46.09-7.51.72-.29.18-1.19,6.47-1.07,6.79.72,1.96,6.84.75,8.58,1.07-.01,15.72.06,31.52,0,47.2-6.84-.42-14.84-1.66-17.16,6.44-2.64,9.19-.95,43.47-.72,55.07.02.95-.03,1.91,0,2.86l-1.43-6.79v13.95c-.44-.15-2.3-.61-2.86-.72l.72-58.29c-2.46-3.99-7.02-.9-11.44-2.5v-2.86c10.13,7.66,13.65-7.33,10.37-8.58-.48-.19-8.64,1.02-10.37,0v-1.43l11.44-.36c.32-12.3-.75-8.74-11.44-9.66v-1.43l11.44-.36c.39-12.6-.67-8.24-11.44-9.66v-1.43l11.44-.36c.42-11.61-1.97-8.03-11.44-9.66v-1.43l10.37.72c.3-1.74,1.37-8.52,0-9.3-3.25,1.05-8.97-.78-10.37,2.86v-10.01c0-15.25.04-30.53,0-45.77l33.61-.72h0Z"/>
            <g>
              <path class="st34" d="M269.82,646.85c.07,2.54-.25,5.42,0,7.87-1.47.39-1.35-.69-1.43-.72v-13.95l1.43,6.79h0Z"/>
              <g>
                <path class="st28" d="M287.7,508.1c-.02,2.61.02,5.25,0,7.87l-8.58-.36c.08-7.42.92-8.22,8.58-7.51h0Z"/>
                <path class="st27" d="M288.41,482.35v.72l-33.61.72v-2.86l33.61,1.43h0Z"/>
                <path class="st27" d="M268.74,569.61c10.95-2.02,11.67,13.73-.36,9.66l.36-9.66Z"/>
                <path class="st27" d="M268.74,558.17c11.27-2.23,11.18,15.08-.36,8.94l.36-8.94Z"/>
                <path class="st27" d="M269.46,546.72c7.7.19,8.43,3.12,6.44,10.01l-7.51-1.07,1.07-8.94Z"/>
                <path class="st34" d="M270.89,536c7.7-1.24,4.21,4.53,5.72,9.3-1.53-.27-7.6.52-8.22-.36-.83-1.17-.39-8.47,2.5-8.94Z"/>
                <path class="st34" d="M268.74,508.1c.54-.39,6.83-.06,7.51,1.07l-1.07,7.51c-7.43,3.5-8.12-7.38-6.44-8.58Z"/>
                <path class="st27" d="M268.74,527.41c.31-.22,7.12-.12,7.51.36.24.29-.48,7.4-1.07,7.51-.34.06-6.6-.79-6.79-1.07s-.12-6.45.36-6.79h0Z"/>
              </g>
            </g>
          </g>
        </g>
      </g>
      <g>
        <g>
          <path class="st16" d="M354.21,661.87c4.01-.26,7.23,2.37,10.73,3.58,4.92,3.39,6.12,9.78,9.3,13.59,2.83,3.4,9.68,5.82,12.87,9.3,1.26,1.37,2.85,3.35,3.58,5.01,1.7,3.87,3.04,11.05,1.43,15.02-.05.12-2,.72-1.43,2.15-36.7-.02-73.44.04-110.14,0,3.41-12.37,10.49-7.96,18.95-8.58,2.77-.2,5.56-2.78,10.01-2.15,2.24.32,6.71,4.22,9.3,3.58,1.67-.41,4.76-7.71,10.01-8.58,13.09-2.17,8.2,12.07,15.02,10.73,2.49-.49-2.57-16.78-12.87-15.02-.66.11-4.03,2.95-4.29,2.86-1.9-.63.25-4.7-3.58-5.72-3.26-.87-4.75,1.45-5.01,1.43-1.23-.1-4.81-1.5-6.08-1.43,1.49-1.5-.13-2.38,0-2.86.7-2.61,13.63-17.42,16.45-18.6,5.86-2.44,11.76-.79,17.88-1.43,4.29-.45,4.37-2.63,7.87-2.86v-.02h0Z"/>
          <path class="st52" d="M390.09,692.25c-.7-.81-.4-.67-.42-.71-.77-1.16-1.73-2.31-2.56-3.21-3.19-3.47-10.04-5.9-12.87-9.3-3.17-3.81-4.38-10.19-9.3-13.59-3.5-1.21-6.72-3.84-10.73-3.58-3.5.23-3.58,2.41-7.87,2.86-6.12.64-12.02-1.01-17.88,1.43-2.82,1.18-15.75,15.98-16.45,18.6-.13.48,1.49,1.36,0,2.86,1.27-.07,4.85,1.33,6.08,1.43.26.02,1.74-2.3,5.01-1.43,2.4.64,2.45,2.48,2.62,3.92.22,1.87,2.35.88,3.55,0,.75-.55,1.43-1.02,1.7-1.06,2.24-.38,4.23.09,5.95,1.06,4.96,2.81,6.83,8.38,8.53,13.46,3.44,1.04,8.31,3.61,11.69,4.25,5.15.98,12.65-.48,16.65,2.83,7.75-.3,12.35,1.87,17.71-4.96.58-3.85,1.54-11.47-1.42-14.88v.02h.01Z"/>
          <g>
            <path class="st21" d="M265.53,653.29c.57.11,2.42.57,2.86.72.08.03-.04,1.1,1.43.72.15,1.51-.1,3.12,0,4.65,2.5,3.56,2.62-.27,5.01-1.07,14.47-4.85,13.67,9.77,16.09,10.73,5.23,2.07,13.53-2.79,16.81,8.94,1.31,4.68-3.61,7.85,4.29,6.79-.13.48,1.49,1.36,0,2.86-4.56.25-7.77,2.9-8.22,2.86-.91-.09-1.95-3.07-2.86-3.58-4.3-2.41-6.6-4.94-9.3-6.44-9.99-5.55-13.96,1.78-17.16,1.43-.52-.06-5.94-4.4-9.3-5.01-.56-.1-10.89-.14-11.44,0-1.25.32-5.12,4.17-6.08,5.36-1.01,1.26-6.4,10.68-7.87,12.16-4.2,4.25-13.74,4.86-10.73,16.09-25.62-.07-51.26.05-76.88,0-.65-.46-.39-7.88-.36-9.3,5.48-1.72,8.59-3.49,14.66-2.86,1.31.14,6.24,2.98,7.15,2.86.69-.09,8.73-6.93,11.44-7.87,4.04-1.4,12.64-.91,13.59-1.43,1.22-.67,4.97-7.83,10.01-10.01,7.52-3.26,20.4-1.12,25.39-6.79.25-.29-.25-1.87,0-2.15,7.14-7.63,14.78-13.77,22.89-20.38,2.53.19,6.19.27,8.58.72h0Z"/>
            <path class="st24" d="M327.8,670.73c-7.9,1.05-2.98-2.12-4.29-6.79-3.28-11.73-11.58-6.87-16.81-8.94-2.42-.96-1.62-15.58-16.09-10.73-2.39.8-2.51,4.63-5.01,1.07-.1-1.53.15-3.13,0-4.65-1.47.39-1.35-.69-1.43-.72-.44-.15-2.3-.61-2.86-.72-2.39-.45-6.05-.53-8.58-.72-8.11,6.61-15.74,12.76-22.89,20.38-.25.27.25,1.86,0,2.15-4.99,5.67-17.87,3.54-25.39,6.79-4.57,1.98-8.07,8.02-9.59,9.64-1.06,1.12-10.96.49-14.1,1.42-2.92.86-9.62,7.53-11.34,7.79-2.94.45-7.07-3.65-13.46-2.83-8.15,1.04,16.29,3.19,13.76,9.89,26.18-.44,27.01,4.36,53.19,4.28-2.91-12.96,10.26-13.67,14.69-20.55,2.16-3.36,5.1-8.39,5.83-9.29.96-1.2,4.83-5.05,6.08-5.36.55-.14,10.88-.1,11.44,0,3.36.61,8.77,4.95,9.3,5.01,3.2.35,7.18-6.98,17.16-1.43,2.7,1.5,5,4.03,9.3,6.44.91.51,1.95,3.49,2.86,3.58.45.04,3.66-2.61,8.22-2.86,1.49-1.5-.13-2.38,0-2.86h.01Z"/>
            <path class="st16" d="M219.75,644.71c2.12-.14,5.05-.18,7.15,0,2.75.23,6.97,1.55,10.01,2.15,3.28.64,4.49-.18,7.51.72,3,.89,6.32,6.23,7.15,6.44.17.04,3.04-1.44,3.22-1.43.71.04,1.44-.05,2.15,0-8.11,6.61-15.74,12.76-22.89,20.38-.25.27.25,1.86,0,2.15-4.99,5.67-17.87,3.54-25.39,6.79-5.04,2.18-8.79,9.34-10.01,10.01-.95.52-9.55.03-13.59,1.43-2.71.94-10.75,7.78-11.44,7.87-.91.11-5.84-2.72-7.15-2.86-6.07-.63-9.18,1.14-14.66,2.86.06-2.52-1.04-1.63.72-5.01,1.89-3.64,11.85-8.94,12.16-9.66.24-.54-3.05-5.94,0-11.44,3.82-6.89,10.48-3.18,13.23-3.93,1.4-.38.97-2.75,1.07-2.86,7.13-7.21,17.51-8.75,25.03-14.66.28-.22,1.04-4.25,3.93-6.08,2.1-1.33,9.17-2.69,11.8-2.86h0Z"/>
            <path class="st52" d="M340.55,672.99c-.89-.02-1.83.08-2.59.16-.35.04-.68-.17-.81-.5-1.88-4.94-4.54-9.13-11.32-10.82-.08-.02-.15-.05-.22-.09-4.98-3.17-9.84-6.21-15.51-7.39-5.34-1.72-15.27-1.95-17.62,3.21-.09.19-.24.35-.43.42-9.44,3.61-22.35.35-29.73,7.97-.17.18-.42.28-.66.24-2.71-.53-7.18-4.82-12.25-1.32-6.38,4.4-2.72,9.76-7.37,12.34-.08.04-.17.08-.25.09-16.71,3.52-25.75-9.6-20.58,18.47,3.6,1.09-3.59-1.13,0,0,4.49-5.53,7.48-11.29,15.45-9.78.07.01.15.04.22.07,16.68,8.02,6.49,8.33,24.77,3.13.14-.04.3-.04.44,0,18.41,5.25,9.66,2.39,25.65-3.04.07-.02.14-.04.22-.05,8.11-.65,19.48,5.29,25.99,1.66.09-.05.17-.12.23-.2,5.88-7.29,17.6-9.14,26.68-13.08.78-.34.54-1.49-.31-1.51v.02h0Z"/>
            <g>
              <path class="st12" d="M312.01,687.62c1.27-.07,4.85,1.33,6.08,1.43.26.02,1.74-2.3,5.01-1.43,3.82,1.02,1.67,5.09,3.58,5.72.26.09,3.63-2.75,4.29-2.86,10.31-1.76,15.37,14.53,12.87,15.02-6.82,1.34-1.93-12.9-15.02-10.73-5.26.87-8.34,8.17-10.01,8.58-2.59.64-7.06-3.26-9.3-3.58-4.45-.63-7.25,1.94-10.01,2.15-8.46.62-15.54-3.79-18.95,8.58h-7.15c-1-5.65,6.11-5.16,6.79-5.72,3.75-3.05,6.49-10.62,11.09-13.23-3.91-6.49-10.11,8.39-11.8,8.94-4.44,1.44-7.77-7.58-18.6-5.01-6.42,1.53-10.06,9.56-11.44,10.01-2.58.85-12.22-1.44-11.8,5.01h-8.58c-3.01-11.23,6.53-11.84,10.73-16.09,1.46-1.48,6.85-10.9,7.87-12.16.96-1.2,4.83-5.05,6.08-5.36.55-.14,10.88-.1,11.44,0,3.36.61,8.77,4.95,9.3,5.01,3.2.35,7.18-6.98,17.16-1.43,2.7,1.5,5,4.03,9.3,6.44.91.51,1.95,3.49,2.86,3.58.45.04,3.66-2.61,8.22-2.86h0Z"/>
              <path class="st45" d="M336.92,691.54c-1.72-.97-3.71-1.44-5.95-1.06-.26.04-.95.52-1.7,1.06-1.2.88-3.33,1.87-3.55,0-.17-1.44-.22-3.28-2.62-3.92-3.26-.87-4.75,1.45-5.01,1.43-1.23-.1-4.81-1.5-6.08-1.43-4.56.25-7.77,2.9-8.22,2.86-.91-.09-1.95-3.07-2.86-3.58-4.3-2.41-6.6-4.94-9.3-6.44-9.99-5.55-13.96,1.78-17.16,1.43-.52-.06-5.94-4.4-9.3-5.01-.56-.1-10.89-.14-11.44,0-1.25.32-5.12,4.17-6.08,5.36-.72.9-3.66,5.93-5.83,9.29-4.43,6.88-17.61,7.59-14.69,20.55,4-.01,8.04,0,12.04,0,1-2.57-2.4-2.71.35-5.67,2.05-2.2,6.43-.32,9.21-1.42,2.19-.86,6.53-8.19,9.21-9.21,10.58-4.02,17.76,5.32,21.26,4.25.52-.16,5.28-6.87,6.91-8.5,1.8-1.81,3.64-2.49,5.15,0l-9.58,10.98.35,1.77c5.23-3.69,11.75-1.47,17.71-2.13.66-.07,5.23-2.75,6.38-2.83,3.37-.25,8.28,2.42,13.82,2.83,3.2-5.43,8.66-10.13,15.23-7.09,2.99,1.38,2.81,5.44,3.9,7.09,4.06,6.17,4.18,2.17,6.38,2.83-1.7-5.08-3.58-10.65-8.53-13.46v.02h0Z"/>
              <path class="st16" d="M273.39,710.51c-11.91-.02-23.85.03-35.76,0-.42-6.45,9.22-4.15,11.8-5.01,1.38-.46,5.02-8.49,11.44-10.01,10.83-2.57,14.16,6.45,18.6,5.01,1.69-.55,7.89-15.43,11.8-8.94-4.6,2.62-7.33,10.18-11.09,13.23-.69.56-7.79.08-6.79,5.72h0Z"/>
              <path class="st52" d="M357.14,709.25c-3.38-.64-8.25-3.21-11.69-4.25-2.2-.66-2.32,3.33-6.38-2.83-6.99-1-11.91.54-19.13,0-5.53-.41-10.45-3.09-13.82-2.83-1.15.09-5.71,2.76-6.38,2.83-5.97.66-12.48-1.57-17.71,2.13l-.35-1.77,9.58-10.98c-1.51-2.49-3.36-1.81-5.15,0-1.62,1.63-6.38,8.34-6.91,8.5-3.5,1.07-10.67-8.27-21.26-4.25-2.68,1.02-7.02,8.35-9.21,9.21-2.78,1.1-7.16-.78-9.21,1.42-2.75,2.95.65,3.1-.35,5.67,44.36-.11,90.51,1.7,134.62,0-4-3.31-11.5-1.86-16.65-2.83v-.02h0Z"/>
            </g>
          </g>
        </g>
        <g>
          <path class="st52" d="M615.26,694.06c.41.83.63.55.72,2.15.01.26-2.3,4.37-1.07,5.01,6.22-2.4,17.56.68,16.09,9.3-35.99.09-72.01-.03-108,0,.04-.46-.09-.99,0-1.43,8.34-.24,28.28,2.72,35.4.72,1.81-.51,5.14-6.58,8.58-7.15,3.74-.63,5.16,2.24,8.58.72,2.69-1.2,6.15-8.53,10.01-9.3,3.38-.68,6.13,1.55,7.15,1.43.28-.03,3.63-3.44,4.29-3.58,4.95-1.01,8,4.21,8.58,4.29.51.07,6.04-3.5,9.66-2.15h0Z"/>
          <path class="st12" d="M680.35,701.21c.2.46.58,5.42,0,6.44-2.66-4.95-3.48-1.54-6.79-3.58-1.24-.76-4.63-4.61-5.72-5.01-10.41-3.78-20.1,5.57-27.54,11.44h-9.3c1.46-8.61-9.87-11.7-16.09-9.3-1.23-.63,1.09-4.75,1.07-5.01,2.23,3.5,4.26-2.29,6.79-2.86,4.3-.97,9.04,4.19,14.3,0,1.62-1.29.46-10.43,12.16-10.01,8.46.3,8.35,8.15,11.44,10.01,2.92,1.76,5.86-2.75,10.73-.72.57.24,8.61,7.82,8.94,8.58v.02h.01Z"/>
          <path class="st45" d="M680.58,702.88c.09-2.28-8.42-10.29-9.56-10.63-4.59-1.35-9.33,3.6-11.94-.71-1.81-2.98-3.12-7.97-9.84-8.21-9.13-.33-10.43,5.17-11.33,8.21-2.03,6.87-12.29.49-15.78,1.42-.59.16-3.22,3.51-4.25,4.25-.38.27-2.39-1.74-3.19.35-1.88,4.94,6.25,2.25,9.56,3.19,5.33,1.51,7.25,9.32,9.21,9.92,6.25,1.9,20.58-15.35,32.59-12.75,3.43.74,9.83,8.59,14.52,6.38-.06-.45-.02-.96,0-1.42h.01Z"/>
          <path class="st21" d="M712.53,693.34c.01,2.23.34,16.67-.36,17.16-10.13.08-20.28-.11-30.4,0-3.78-1.38-1.15-2.33-1.43-2.86.58-1.01.2-5.98,0-6.44,6-8.89,16.96-1.24,20.38-1.43.67-.04,9.68-6.23,11.8-6.44h.01Z"/>
          <path class="st16" d="M680.35,707.64c.28.53-2.35,1.48,1.43,2.86-13.81.15-27.67-.04-41.48,0,7.44-5.87,17.13-15.22,27.54-11.44,1.09.4,4.49,4.25,5.72,5.01,3.31,2.04,4.13-1.37,6.79,3.58h0Z"/>
          <g>
            <path class="st16" d="M632.43,659.73c3.14-.18,5.58,1.16,8.58,1.43.15,1.25,1.7,8.28,2.5,8.58.43.16,4.77-1.4,8.94-.72.76.12,1.58.52,2.86.72,1.39.21,4.93,2.07,6.44,2.15,4.08.2,7.68-3.44,12.16-2.15.02.05.27-.24.72.72,4.01,8.66,2.49,3.2,7.51,2.15,2.11-.44,3.74.78,3.93.72l.36,4.29c7.73-1.96,4.49,3.05,5.72,8.58,2.14-1.16,2.8-2.11,5.36-2.86,4.29-1.25,9.19-2.1,13.59-.72,0,.78,1.41,7.07,1.43,10.73-2.12.2-11.13,6.4-11.8,6.44-3.43.19-14.38-7.46-20.38,1.43-.33-.76-8.37-8.34-8.94-8.58-4.87-2.03-7.81,2.47-10.73.72-3.1-1.87-2.98-9.71-11.44-10.01-11.7-.42-10.54,8.73-12.16,10.01-5.26,4.19-10-.97-14.3,0-2.54.57-4.57,6.36-6.79,2.86-.09-1.59-.3-1.32-.72-2.15-2.19-4.42-6.51-1.98-8.22-2.86-.89-.46-.17-6.53-7.15-5.01-.85.19-3.03,3.28-5.01,2.86-.65-.14-2.81-3.99-4.65-5.01,4.21-3.5,9.09-3.85,13.59-5.72.63-.26,2.26.27,2.86,0,2.45-1.09,2.73-3.63,3.58-4.29,1.49-1.15,2.89-2.51,4.29-3.58,1.49-1.14,2.81-2.46,4.29-3.58,1.15-.86,3.47-3.1,4.29-3.58.89-.51,2.03-1.38,2.15-1.43,1.08-.51,3.73-1.19,5.01-1.43.72-.14.81-.64,2.15-.72h-.02Z"/>
            <path class="st52" d="M699.71,682.33l-1.42.78c-.26.07-.53.14-.78.21-2.57.75-3.22,1.7-5.36,2.86-1.23-5.53,2.01-10.54-5.72-8.58l-.36-4.29c-.19.07-1.82-1.16-3.93-.72-5.02,1.05-3.5,6.51-7.51-2.15-.44-.95-.7-.67-.72-.72-4.48-1.29-8.08,2.34-12.16,2.15-1.51-.07-5.04-1.93-6.44-2.15-1.28-.19-2.1-.59-2.86-.72-4.17-.69-8.51.88-8.94.72-.81-.3-2.35-7.33-2.5-8.58-3-.27-5.44-1.61-8.58-1.43-1.33.07-1.42.58-2.15.72-1.28.24-3.92.92-5.01,1.43-.12.05-1.25.92-2.15,1.43-.82.47-3.14,2.71-4.29,3.58-1.49,1.12-2.8,2.44-4.29,3.58-1.4,1.07-2.8,2.42-4.29,3.58-.85.66-1.12,3.2-3.58,4.29-.6.27-2.23-.26-2.86,0-4.5,1.87-9.37,2.22-13.59,5.72,1.84,1.01,4,4.87,4.65,5.01,1.97.42,4.15-2.67,5.01-2.86,6.99-1.53,6.26,4.55,7.15,5.01,1.13.59,3.4-.27,5.45.35h25.42c.9-3.04,2.2-8.54,11.33-8.21,6.72.24,8.03,5.23,9.84,8.21,2.61,4.3,7.36-.64,11.94.71,1.15.34,9.66,8.35,9.56,10.63.47-12.13,16.1-2.66,20.9-3.54,1.08-.2,7.22-5.39,9.21-6.38,4.74-2.35,7.78,2.67,8.15-9.21-7.56-4.04-11.37-1.42-19.13-1.42h0Z"/>
            <path class="st52" d="M629.92,665.45c7.67,3.18-8,9.79-10.73,11.44-1.46.89-7.6,10.68-9.3,2.15l20.03-13.59h0Z"/>
          </g>
          <path class="st69" d="M673.19,666.16c2.13,1.48.64,3.37.72,3.58-4.48-1.29-8.08,2.34-12.16,2.15.88-.75,2.93-3.13,3.58-3.58,4.5-3.13,3.67-1.27,7.87-2.15h-.01Z"/>
          <path class="st71" d="M682.49,664.73l-7.87,5.72c-.44-.95-.7-.67-.72-.72-.08-.21,1.41-2.1-.72-3.58,3.65-.76,5.17-1.59,9.3-1.43h0Z"/>
          <g>
            <path class="st73" d="M533.01,676.18c-4.21,1.14-4.09,10.48-4.65,10.73-.33.14-3.7-1.51-5.36-1.43l-1.43-5.72c2.42-.63,4.42-3.12,7.15-3.58,1.31-.22,2.93.17,4.29,0Z"/>
            <g>
              <path class="st21" d="M548.75,669.02c.21-.04,3.47.04,4.29,0-.5,3.16-4.2,2.74-6.08,4.29-1.35,1.12-2.39,4.3-3.58,5.01-2.52,1.5-7.54-.74-11.09,4.65-2.69,4.08-8.24,20.7-9.3,26.11-.09.44.04.97,0,1.43h-7.87c-2.56-3.75,3.46-4.31,5.01-6.79-2.12-.02-6.08-3.82-6.44-3.93-.95-4.09.87-4.63,2.15-7.15.38-.76.75-2.64.72-3.58,1.91-.49,2.24-3.36,6.44-3.58,1.67-.08,5.04,1.57,5.36,1.43.56-.24.44-9.59,4.65-10.73,1.91-.24,4.72.94,5.36.72,1.56-.55.14-5.72,10.37-7.87h.01Z"/>
              <path class="st24" d="M548.75,669.02c-10.23,2.14-8.81,7.32-10.37,7.87-.64.22-3.45-.95-5.36-.72-4.21,1.14-4.09,10.48-4.65,10.73-.33.14-3.7-1.51-5.36-1.43-4.2.21-4.53,3.08-6.44,3.58.02.62-.13,1.65-.35,2.49-.25.97-.7.66-.72.71-1.2,2.3-2.56,4.43-2.13,7.09.66.23,5.11,4.26,4.96,4.61-3.36,1.39-8.98,1.59-7.79,6.73,2.74.01,9.36,1.4,14.17,1.42-4.75-6.54,1.32-14.02,3.77-20.55,1.42-3.78,2.82-7.05,3.82-8.57,3.55-5.39,8.57-3.15,11.09-4.65,1.19-.71,2.22-3.89,3.58-5.01,1.88-1.55,5.58-1.13,6.08-4.29-.82.04-4.08-.04-4.29,0h-.01Z"/>
              <path class="st16" d="M520.5,689.05c1.52-.58,3.22,6.43,2.15,7.15-4.2,1.04-5.32-5.95-2.15-7.15Z"/>
              <path class="st52" d="M522.37,691.54c-.49-1.51-1.19-2.75-1.87-2.49-1.02.39-1.59,1.37-1.76,2.49-.87,5.64,5.62,6.18,3.63,0Z"/>
            </g>
            <g>
              <path class="st16" d="M560.19,668.31c.2.04,2,2.73,3.58,2.15,1.94,2.98,2.62,7.14,2.86,7.51.22.34,5.68,5.31,6.08,5.36,1.95.28,2.51-2.99,5.36-.72,5.47,4.48,4.36-2.86,12.16,1.43,1.84,1.01,4,4.87,4.65,5.01,1.97.42,4.15-2.67,5.01-2.86,6.99-1.53,6.26,4.55,7.15,5.01,1.71.89,6.03-1.56,8.22,2.86-3.61-1.36-9.14,2.22-9.66,2.15-.58-.08-3.63-5.3-8.58-4.29-.67.14-4.01,3.54-4.29,3.58-1.02.12-3.77-2.11-7.15-1.43-3.86.77-7.33,8.1-10.01,9.3-3.43,1.53-4.84-1.34-8.58-.72-3.45.58-6.77,6.64-8.58,7.15-7.12,2.01-27.06-.95-35.4-.72,1.06-5.4,6.61-22.02,9.3-26.11,3.55-5.39,8.57-3.15,11.09-4.65,1.19-.71,2.22-3.89,3.58-5.01,1.88-1.55,5.58-1.13,6.08-4.29,2.14-.1,4.53-1.26,7.15-.72h-.02Z"/>
              <path class="st52" d="M680.58,704.3c-4.7,2.21-11.09-5.63-14.52-6.38-12.01-2.6-26.35,14.65-32.59,12.75-1.97-.6-3.88-8.41-9.21-9.92-3.31-.94-11.45,1.75-9.56-3.19.8-2.1,2.81-.08,3.19-.35,1.03-.74,3.66-4.1,4.25-4.25,3.48-.92,13.74,5.46,15.78-1.42h-25.42c-2.04-.62-4.32.24-5.45-.35-.89-.46-.17-6.53-7.15-5.01-.85.19-3.03,3.28-5.01,2.86-.65-.14-2.81-3.99-4.65-5.01-7.8-4.29-6.69,3.05-12.16-1.43-2.85-2.28-3.41,1-5.36.72-.4-.06-5.86-5.03-6.08-5.36-.24-.37-.92-4.53-2.86-7.51-1.57.59-3.37-2.1-3.58-2.15-2.63-.55-5.01.61-7.15.72-.5,3.16-4.2,2.74-6.08,4.29-1.35,1.12-2.39,4.3-3.58,5.01-2.52,1.5-7.54-.74-11.09,4.65-1,1.52-2.41,4.79-3.82,8.57-2.45,6.53-8.52,14.01-3.77,20.55,54.07.21,108.18,0,162.25,0-3.28-.33-6.02-4.96-6.38-7.79h0Z"/>
              <path class="st38" d="M585.58,686.9c.18-.04,3.45,1.66,2.15,2.86-2.8,1-4.28-2.42-2.15-2.86Z"/>
              <path class="st56" d="M563.77,670.45c-1.57.59-3.37-2.1-3.58-2.15.71.3,3.79.58,3.93.72,1.25,1.15-.4,1.37-.36,1.43h.01Z"/>
            </g>
          </g>
          <g>
            <path class="st69" d="M684.64,666.16l3.58,5.72c-.12.05-.24.77-2.15,1.43-.19.07-1.82-1.16-3.93-.72-5.02,1.05-3.5,6.51-7.51-2.15l7.87-5.72c2.11.08,2.02,1.41,2.15,1.43h-.01Z"/>
            <path class="st2" d="M678.56,669.02c1.01-.02,1.96-.33,1.79,1.07l-3.22.36c-.74-.36,1.33-1.43,1.43-1.43Z"/>
          </g>
        </g>
      </g>
      <path class="st42" d="M528.72,550.3c-.55,10.82-2.71,21.13-2.15,32.18.01.24-.01.48,0,.72h-11.44c-7.61,0-15.38-.71-22.89-.72v-57.22c4.5-6.72,9.57-15.69,8.58-23.96,3.69-1.13.65,3.43,1.79,3.93l3.93-5.01c9.27-.14,19.02,1.75,25.03-7.15-1.78,19.02-1.89,38.18-2.86,57.22h.01Z"/>
      <g>
        <path class="st11" d="M407.14,500.23v42.2c0,55.78.25,111.6-.72,167.36-.62,0-3.21.72-5.01.72l.36-1.43-9.66-.72c1.61-3.97.26-11.15-1.43-15.02l1.43-193.11h15.03Z"/>
        <path class="st35" d="M407.14,542.43v-42.2h-15.02l-1.42,191.31-.61.71c2.96,3.41,2,11.03,1.42,14.88-.25,1.67-.8,3-1.77,4.25,5.31.05,10.64-.07,15.94,0l1.02-19.84c.64-49.69.45-99.41.45-149.11h-.01Z"/>
        <path class="st10" d="M410.71,548.87c.02,53.63-.01,107.29,0,160.92h-4.29c.97-55.76.72-111.58.72-167.36,4.26-.06.26,6.43,3.58,6.44h0Z"/>
        <path class="st29" d="M410.71,548.87c-3.32,0,.68-6.5-3.58-6.44,0,49.7.2,99.42-.45,149.11l-1.02,19.84c1.57.02,3.4-.02,4.96,0l.08-19.84c0-47.55.01-95.13,0-142.67h.01Z"/>
        <path class="st47" d="M410,499.52c1.31,16.38.71,32.93.72,49.35-3.32,0,.68-6.5-3.58-6.44v-42.2c.47,0,1.24-.72,2.86-.72h0Z"/>
        <path class="st19" d="M392.12,500.23l-1.43,193.11c-.73-1.66-2.32-3.64-3.58-5.01v-188.1h5.01,0Z"/>
        <path class="st30" d="M387.11,500.23v188.1c.82.9,1.78,2.05,2.56,3.21.02.03-.28-.1.42.71l.61-.71,1.42-191.31h-5.01Z"/>
        <path class="st27" d="M387.11,500.23v188.1c-3.19-3.47-10.04-5.9-12.87-9.3,4.22.46.71-3.76,2.15-4.65,1.31-.81,2.01.91,3.22.36,3.29-1.51-.52-6.34,6.79-3.22-.38-1.79.51-9.99,0-10.73-.36-.52-11.46-3.21,0-6.44l-6.08-.36-.72,6.44c-9.42-2.91-2.35-.4-6.44,2.15-.77.48-6.26-2.74-5.01,4.29-1.23-1.23-1.93-.98-3.22-1.43-3.5-1.21-6.72-3.84-10.73-3.58l.72-161.64c10.68.02,21.49-.01,32.18,0h.01Z"/>
        <path class="st30" d="M354.93,500.23l-.72,161.64c-3.5.23-3.58,2.41-7.87,2.86l-5.72-1.79,2.86-105.14c5.21,1.51,2.8-10.2,2.86-14.66l3.58.36,1.43-43.27h3.58Z"/>
        <path class="st27" d="M374.24,679.04c-3.17-3.81-4.38-10.19-9.3-13.59,1.29.45,1.99.2,3.22,1.43-1.26-7.03,4.24-3.81,5.01-4.29,4.08-2.55-2.99-5.06,6.44-2.15l.72-6.44,6.08.36c-11.46,3.23-.36,5.92,0,6.44.51.74-.38,8.94,0,10.73-7.31-3.12-3.51,1.71-6.79,3.22-1.21.56-1.91-1.16-3.22-.36-1.44.89,2.07,5.11-2.15,4.65h-.01Z"/>
        <path class="st28" d="M492.25,500.23v82.25c-7.48,0-15.31,1.48-22.89.72-2.86-.26-20.81-1.09-21.46.36-4.63,10.38,10.63,7.36,16.45,7.51.46,1.73-2.67,3.1-2.86,3.93-.42,1.85,1.15,2.06,1.43,3.22-3.97.4-4.17,1.93-7.15,3.58-.81-2.21-.76-7.36-4.29-6.79-1.02,1.97,1.97,10.4,2.86,13.23-.98,5.26-3.5,10.33-2.86,15.73-4.42,3.06-.35,7.4-.72,11.09-.84,8.51-3.88,16.94-1.43,26.11.97,3.61,6.51,12.02,5.72,15.02-1.44,5.46-9.95,6.09-14.3,4.29-.56-49.55,0-99.21,0-148.76l6.44.36-.72-31.83c15.19.16,30.55-.39,45.77,0v-.02h0Z"/>
        <path class="st23" d="M351.35,500.23l-1.43,43.27-3.58-.36c.18-14.29-.14-28.62,0-42.91,1.66.01,3.35,0,5.01,0h0Z"/>
        <path class="st47" d="M516.56,375.07c.51.39,3.4.6,3.58.72,3.33,2.14,10.18,5.61,12.16,8.94,8.54,14.37-10.96,40.07-20.03,51.14,1.56-4.95,1.03-20.95.72-26.82-.07-1.38.4-2.68-1.43-3.22,1.63-4.15,3.29-8.13,4.29-12.52l.72-18.24h0Z"/>
        <path class="st47" d="M331.33,375.79l.72,14.66c1.18,3.87,1.67,7.94,2.86,11.8-.03,8.56-2.39,24.33-.72,32.18-1.47-.94-3.28-2.93-4.29-4.29-8.62-11.67-25.8-36.77-11.09-49.35,4.63-3.96,9.55-3.3,12.52-5.01h0Z"/>
        <g>
          <path class="st3" d="M491.53,342.89c3.29,2.15,5.69,3.65,8.58,6.44,6,5.77,8.9,11.45,12.87,18.6,1.54,2.76.22,4.58,3.58,7.15l-.72,18.24c-1.01,4.39-2.66,8.36-4.29,12.52-4.26,10.84-12.32,22.15-19.31,31.47-4.75,6.34-10.31,12.21-15.02,18.6-12.56-.1-25.32.05-37.91,0,14.77-15.69,51.88-54.3,47.92-76.88-1.15-6.58-11.66-14.3-17.88-16.09l.72-1.43c2.83.55,6.01-.2,8.58-1.43,4.48,1.7,12.69,6.37,15.73.36,2.77-5.47-.26-12.07-5.01-15.38-.24-2.11.06-2.38,2.15-2.15v-.02h0Z"/>
          <path class="st46" d="M347.06,349.33c-6.31,6.21-9.81,13.62-13.59,21.46-36.62-.02-37.03,15.79-20.03,42.55,3.3,5.19,10.52,15.05,16.45,16.81,1.01,1.37,2.82,3.35,4.29,4.29,1.01,4.72,14.54,16.94,17.88,21.46-8.93.11-28.22-.61-35.76.72-19.39-24.53-46.37-56.36-22.89-87.61,11.76-15.65,34.75-23.97,53.64-19.67h0Z"/>
          <path class="st39" d="M369.95,335.74c-8.84,8.01-13.82,18.2,2.86,17.88-7.11,2.21-23.3,17.89-24.32,24.67-1.24,8.25,3.56,14.4,7.87,20.74,4.17,6.14,45.05,53.89,48.63,54.71,1.14.26,1.32-.51,2.15-.72v2.86c-11.64.04-23.44-.09-35.05,0-12.66-15.37-31.25-34.35-37.19-53.64-1.19-3.86-1.68-7.94-2.86-11.8l-.72-14.66c3.44-1.98,1.37-3.39,2.15-5.01,3.78-7.84,7.28-15.24,13.59-21.46,6.04-5.95,14.82-11.03,22.89-13.59v.02Z"/>
          <path class="st65" d="M491.53,342.89c-2.09-.24-2.39.03-2.15,2.15-7.85-5.47-26.79-6.36-29.32,5.72-6.65-3.41-26.68,8.05-32.9,9.3-.47-4.02-1.76-16.1-.72-19.31.18-.55.9-.99,1.43-1.43,1.22-1,14.64-5.33,16.81-5.72,17.02-3.08,32.43-.13,46.85,9.3h0Z"/>
          <path class="st68" d="M420.01,340.74c.43.33,1.2,1.1,1.43,1.43,2.89,4.13.81,12.4.72,17.88-.07,4.1-.03,8.12.72,12.16-.24-.01-.48.02-.72,0-4.06-.36-8.41-2.08-12.16-3.58-2.99-1.19-7.24-5.53-10.73-6.44-2.59-2.98-6.09-8.74-10.01-10.01-.11-2.69-1.72-.43-.36-2.15,4.79-6.03,10.62-4.73,6.79-17.16,4.6.46,20.88,5.17,24.32,7.87Z"/>
          <path class="st67" d="M395.69,332.88c3.83,12.44-2,11.14-6.79,17.16-1.36,1.72.24-.55.36,2.15-5.35-1.74-11.27-.18-16.45,1.43-16.68.32-11.7-9.87-2.86-17.88,8.91-2.83,16.17-3.82,25.75-2.86h0Z"/>
          <path class="st30" d="M372.09,455.89c-6.63.05-13.44-.08-20.03,0-3.34-4.51-16.87-16.73-17.88-21.46-1.68-7.86.69-23.62.72-32.18,5.94,19.29,24.53,38.27,37.19,53.64Z"/>
          <path class="st23" d="M512.27,435.87c-1.76,5.58-13.35,15.06-16.45,20.74-1.62-.02-3.39-.71-3.58-.72v-18.6c6.99-9.32,15.05-20.63,19.31-31.47,1.83.54,1.36,1.84,1.43,3.22.32,5.87.85,21.87-.72,26.82h0Z"/>
          <path class="st47" d="M492.25,455.89c-4.93-.05-10.04.04-15.02,0,4.71-6.39,10.27-12.26,15.02-18.6v18.6Z"/>
          <g>
            <path class="st49" d="M372.09,455.89c11.61-.09,23.41.04,35.05,0h3.58c8.68-.03,17.69.68,26.46.72,1.38,0,1.58-.72,2.15-.72,12.59.05,25.35-.1,37.91,0,4.98.04,10.09-.05,15.02,0,.18,0,1.96.69,3.58.72,10.24.14,27.27-1.51,36.48,0,11.05,1.82,10.65,15.3.72,18.6l-215.63-.72c-.67.35-.21,1.17-.36,1.43-10.54-3.12-12.16-17.3-.72-19.31,7.54-1.32,26.83-.6,35.76-.72,6.58-.08,13.39.05,20.03,0h-.03,0Z"/>
            <path class="st46" d="M533.01,475.2c-.06,2.85.08,5.74,0,8.58-8.98,3.47-17.91,6.59-27.18,9.3,1.08-3.82-6.55-2.88-8.94-2.86-8.9.05-25.17.34-33.61,1.43-1.54.2-2.62.08-2.5,2.15-12.35-4.64-74.04-1.12-93.33-2.15-16.39-.87-34.88-2.05-50.42-6.44-.19-2.76-1.54-6.52,0-9.3.14-.26-.32-1.08.36-1.43l215.63.72h-.01Z"/>
            <path class="st62" d="M460.78,493.8c2.46.92,4.34,3.14,7.87,4.29,6.94,2.27,15.09,1.14,23.6,1.43v.72c-15.22-.39-30.58.16-45.77,0-1.92-.02-3.85.02-5.72,0-.48,0-1.25-.7-2.86-.72-3.33-.02-6.68.02-10.01,0h-4.29c-4.52-.02-9.07,0-13.59,0-1.62,0-2.4.72-2.86.72h-20.03c-10.69-.01-21.5.02-32.18,0h-3.58c-1.66,0-3.35.01-5.01,0-7.9-.06-21.11,2.07-26.46-4.29-3.41-4.05-2.55-6.09-2.86-10.73,15.54,4.38,34.03,5.56,50.42,6.44,19.3,1.03,80.98-2.49,93.33,2.15h0Z"/>
            <path class="st55" d="M533.01,483.79c-.07,2.32-.49,4.24-.72,6.44-.07.63-.58,1.42-.72,2.86-6.02,8.9-15.76,7.01-25.03,7.15-4.43.07-9.74-.56-14.3-.72-8.51-.29-16.67.84-23.6-1.43,7.07-.72,17.34,1.1,23.96,0,3.25-.54,9.29-3.85,13.23-5.01,9.26-2.71,18.19-5.82,27.18-9.3h0Z"/>
            <path class="st64" d="M505.84,493.08c-3.95,1.15-9.98,4.47-13.23,5.01-6.62,1.1-16.89-.72-23.96,0-3.52-1.15-5.41-3.37-7.87-4.29-.11-2.07.96-1.95,2.5-2.15,8.44-1.09,24.72-1.38,33.61-1.43,2.39-.01,10.02-.96,8.94,2.86h0Z"/>
          </g>
          <path class="st65" d="M489.39,345.04c4.75,3.31,7.77,9.91,5.01,15.38-3.04,6.01-11.26,1.34-15.73-.36-4.9-1.86-11.73-7.39-17.16-6.44-.45-.48-1.16-2.72-1.43-2.86,2.53-12.09,21.47-11.19,29.32-5.72h-.01Z"/>
          <path class="st25" d="M460.06,350.76c.27.14.98,2.38,1.43,2.86,2.43,2.55,4.52,7.08,8.58,7.87l-.72,1.43c-14.92-4.3-19.27,1.14-31.47,5.72-3.09,1.16-5.91,3.11-9.3,3.58-1.55.21-4.07.09-5.72,0-.74-4.04-.78-8.06-.72-12.16,1.55-.2,3.57.29,5.01,0,6.22-1.25,26.25-12.71,32.9-9.3h.01Z"/>
          <path class="st65" d="M478.66,360.05c-2.57,1.24-5.76,1.98-8.58,1.43-4.07-.78-6.15-5.31-8.58-7.87,5.43-.95,12.27,4.58,17.16,6.44h0Z"/>
          <g>
            <path class="st22" d="M538.02,449.46c-1.61,2.18-4.53,4.38-5.72,7.15-9.2-1.51-26.23.14-36.48,0,3.1-5.68,14.69-15.16,16.45-20.74,9.07-11.07,28.57-36.77,20.03-51.14-1.98-3.33-8.83-6.8-12.16-8.94,2.33-3.44,5.24,1.35,6.44-3.58,8.08,2.64,23.49,8.05,20.74-6.79-.76-4.11-7.22-9.82-10.73-11.8,45.54,24.44,24.91,64.05,1.43,95.84h0Z"/>
            <path class="st49" d="M536.59,353.62c3.51,1.98,9.97,7.69,10.73,11.8,2.75,14.84-12.66,9.44-20.74,6.79-3.28-1.07-6.31-3.73-8.58-4.29-10.17-9.11-3.71-18.24,8.58-17.88,4.19.8,6.28,1.47,10.01,3.58h0Z"/>
            <path class="st46" d="M526.58,350.04c-12.29-.36-18.76,8.77-8.58,17.88-1.34-.33-3.51.23-5.01,0-3.98-7.15-6.87-12.83-12.87-18.6,9.82-.08,16.55-1.19,26.46.72Z"/>
            <path class="st62" d="M517.99,367.92c2.28.56,5.3,3.22,8.58,4.29-1.19,4.92-4.11.13-6.44,3.58-.18-.11-3.07-.33-3.58-.72-3.35-2.57-2.04-4.39-3.58-7.15,1.5.23,3.67-.33,5.01,0h.01Z"/>
          </g>
          <path class="st62" d="M333.47,370.78c-.78,1.61,1.3,3.03-2.15,5.01-2.97,1.71-7.89,1.05-12.52,5.01-14.72,12.58,2.46,37.68,11.09,49.35-5.93-1.75-13.15-11.61-16.45-16.81-17.01-26.76-16.6-42.57,20.03-42.55h0Z"/>
          <path class="st64" d="M389.26,352.19c3.92,1.27,7.43,7.04,10.01,10.01-10.61-2.75-28.17,1.41-34.33,11.09-10.95,17.19,11.69,44.81,22.17,58.29,1.89,2.43,3.76,4.78,5.72,7.15,4.08,4.94,8.47,9.78,12.16,15.02-3.59-.82-44.47-48.58-48.63-54.71-4.31-6.34-9.11-12.49-7.87-20.74,1.02-6.79,17.21-22.47,24.32-24.67,5.18-1.61,11.1-3.17,16.45-1.43h0Z"/>
        </g>
        <path class="st35" d="M407.14,453.03c-.83.21-1,.98-2.15.72-3.68-5.24-8.08-10.08-12.16-15.02l-.72-23.6c2.12-.22,14.31-.53,15.02,1.07v36.83h.01Z"/>
        <path class="st53" d="M446.47,500.23l.72,31.83-6.44-.36c0-10.46.04-20.98,0-31.47,1.87.02,3.8-.02,5.72,0Z"/>
        <g>
          <path class="st8" d="M423.59,499.52v209.2l3.93.36.36-209.56c3.33.02,6.69-.02,10.01,0,.26,57.4-2.78,115.34-.72,172.72.11,3.03.29,16.43.72,17.88.51,1.73,1.58.78,2.86,1.79.13,6.14.97,12.43.72,18.6-10.23,0-20.6-.71-30.75-.72-.01-53.63.02-107.29,0-160.92,0-16.42.6-32.97-.72-49.35,4.52,0,9.07-.02,13.59,0h0Z"/>
          <g>
            <g>
              <path class="st27" d="M437.89,690.12c-.43-1.45-.61-14.85-.72-17.88-2.06-57.38.97-115.32.72-172.72-3.33-.02-6.68.02-10.01,0l-.33,192.02h12.53c-.98-.37-1.77,0-2.19-1.42Z"/>
              <path class="st27" d="M410,499.52c1.31,16.38.71,32.93.72,49.35.01,47.55,0,95.12,0,142.67l-.08,19.84c3.06.03,6.15-.01,9.21,0,.64-1.6,2.15.36,2.83-1.77.88-2.72.91-14.54.91-18.07v-192.02c-4.52-.02-9.07,0-13.59,0h0Z"/>
            </g>
            <g>
              <path class="st27" d="M437.89,690.12c-.43-1.45-.61-14.85-.72-17.88-2.06-57.38.97-115.32.72-172.72-3.33-.02-6.68.02-10.01,0l-.33,192.02h12.53c-.98-.37-1.77,0-2.19-1.42Z"/>
              <path class="st27" d="M410,499.52c1.31,16.38.71,32.93.72,49.35.01,47.55,0,95.12,0,142.67l-.08,19.84c3.06.03,6.15-.01,9.21,0,.64-1.6,2.15.36,2.83-1.77.88-2.72.91-14.54.91-18.07v-192.02c-4.52-.02-9.07,0-13.59,0h0Z"/>
            </g>
          </g>
          <path class="st49" d="M433.6,282.1c-2.32-.14-.69.67-.72.72-1.55,3.35-4.09,3.88-5.01,7.51,2.39,1.9-1.52,5.61-.72,7.15,1.48,2.83,3,1.32,3.58,2.15.42.6-2.11,2.9-2.15,3.58-.15,2.75,2.21,5.01-.72,8.58-2.14,2.61-9.19.4-10.73-1.43-.36-.42-.52-4.03-1.07-4.65-.73-.8-2.55,3.48-4.65,1.43.5-3.64-1.48-9.64,2.15-13.95-9.84-1.58-11.96,13.43-5.72,20.38-.09.04-.55,1.55-1.43,1.43-7.07-9.55-6.68-23.13,3.22-30.75,3.02-2.33,11.38-4.17,11.8-4.65,1.48-1.7,1.38-39.58,2.15-45.06l2.86,44.34c2.16,1.64,4.82,1.86,7.15,3.22h.01Z"/>
          <path class="st49" d="M420.01,325.01c-5.37-3.43-9.61-4.63-13.59-10.01.88.12,1.34-1.39,1.43-1.43.31-.13,1.19,1.54,2.86-1.07-.43-1.94.43-3.31.72-5.36,2.1,2.05,3.92-2.23,4.65-1.43.56.61.72,4.22,1.07,4.65,1.53,1.83,8.59,4.04,10.73,1.43,2.92-3.57.56-5.83.72-8.58.04-.68,2.57-2.97,2.15-3.58-.58-.83-2.09.68-3.58-2.15-.81-1.54,3.1-5.25.72-7.15.92-3.63,3.46-4.16,5.01-7.51,17.05,8.99,14.28,34.01-3.93,40.05-2.7.89-7.6-1.73-8.94,2.15h-.02Z"/>
          <path class="st18" d="M427.88,499.52l-.36,209.56-3.93-.36v-209.2h4.29,0Z"/>
          <path class="st40" d="M427.88,499.52h-4.29v192.02c0,3.53-.03,15.35-.91,18.07-.69,2.13-2.2.17-2.83,1.77,2.59.01,5.21,0,7.79,0l-.09-19.84.33-192.02h0Z"/>
          <path class="st14" d="M440.75,500.23c.04,10.49,0,21.01,0,31.47,0,49.56-.56,99.21,0,148.76.04,3.8-.08,7.64,0,11.44-1.28-1.01-2.35-.06-2.86-1.79-.43-1.45-.61-14.85-.72-17.88-2.06-57.38.97-115.32.72-172.72,1.61.01,2.38.71,2.86.72h0Z"/>
          <path class="st48" d="M440.08,691.54h.66c-.07-3.68.05-7.4,0-11.08-.56-49.55,0-99.21,0-148.76,0-10.46.04-20.98,0-31.47-.48,0-1.25-.7-2.86-.72.26,57.4-2.78,115.34-.72,172.72.11,3.03.29,16.43.72,17.88.42,1.42,1.21,1.05,2.19,1.42h0Z"/>
          <path class="st27" d="M422.16,372.21c4.68,9.72-1.62,81.25,1.79,83.68.23.16,3.58.14,3.93-.36,2.41-3.4-2.36-73.35.72-83.32,3.39-.47,6.2-2.41,9.3-3.58l-.72,87.97c-8.77-.03-17.78-.75-26.46-.72l-.72-87.26c3.75,1.5,8.1,3.21,12.16,3.58h0Z"/>
          <path class="st49" d="M426.45,340.74c-1.05,3.21.25,15.29.72,19.31-1.43.29-3.46-.2-5.01,0,.09-5.48,2.17-13.75-.72-17.88,2.02-5.72-.15-11.72,1.07-17.88,4.62-3.89-1.02,16.79,3.93,16.45h.01Z"/>
          <path class="st40" d="M428.59,372.21c-3.08,9.97,1.69,79.92-.72,83.32-.35.5-3.71.52-3.93.36-3.41-2.42,2.89-73.96-1.79-83.68.24.02.48-.01.72,0,1.65.09,4.17.21,5.72,0Z"/>
          <path class="st68" d="M411.43,307.13c-.28,2.06-1.14,3.42-.72,5.36-1.67,2.61-2.55.94-2.86,1.07-6.24-6.95-4.11-21.96,5.72-20.38-3.62,4.31-1.64,10.31-2.15,13.95h0Z"/>
        </g>
        <path class="st30" d="M392.12,415.13l.72,23.6c-1.96-2.37-3.83-4.73-5.72-7.15v-15.38c1.26-1.77,3.25-.89,5.01-1.07h-.01Z"/>
      </g>
      <g>
        <path class="st42" d="M683.21,537.43c-.83-.25-.85-.69-2.15-.72-7.29-5.8-15.9-9.89-23.6-15.02-1.62-1.08-4.62-4.04-7.15-5.72-.05-24.56.38-49.12-.72-73.67l35.76,18.95-2.15,76.17h.01Z"/>
        <g>
          <path class="st5" d="M665.33,668.31c-.64.45-2.7,2.83-3.58,3.58-1.51-.07-5.04-1.93-6.44-2.15-1.52-5.97,7.52-3.84,10.01-1.43h.01Z"/>
          <path class="st70" d="M643.87,512.39c2.72,2.09,4.48,2.27,6.44,3.58,2.53,1.68,5.54,4.64,7.15,5.72-2.89,2.93,1.37,4.71,1.43,5.01.27,1.44-.17,3.43,0,5.01.61,5.75,3.71.59,5.01,4.29-6.74-.82-3.66,2.09-3.58,6.44.03,1.41-.11,2.89,0,4.29.09,1.16.51,2.92.72,4.29-1.28.04-.31,1.86-1.07,2.15-.41.16-1.21-.09-1.79,0,2.85-6.04-3.08-8.53-2.15-.72-.24.02-.48,0-.72,0-1.06-1.73-.8-3.82-.72-5.72.07-1.65.02-2.69,0-4.29-.03-2.1.19-4.28,0-6.44-.12-1.41.11-2.88,0-4.29-.13-1.6.68-5.66-1.07-6.44-4.4-1.95-7.5.94-6.08,5.72-1.32.25-.27,1.6-1.07,2.15-.47.32-1.83-1.47-2.5.36-.48,1.31.56,18.09.72,21.1l-4.29.72c-.87-44.68-3.47-89.32-2.15-134.1.42-.52.78-.83,1.43-1.07v89.76c.39,1.12,3.67,2.02,4.29,2.5v-.02h0Z"/>
          <path class="st36" d="M654.6,531.7c.11,1.41-.12,2.89,0,4.29-10.34-2.34-10.35,8.78,0,6.44.02,1.61.07,2.64,0,4.29-4.3-.62-9.68-.32-7.15,5.36,1.11,2.5,6.53.39,7.87.36.24,0,.48.02.72,0,1.38-.11,1.63.8,2.15.72.57-.09,1.37.16,1.79,0,.77-.29-.21-2.11,1.07-2.15.18,1.19.63,1.56.72,2.15.21,1.44.51,2.9.72,4.29-4.66-.23-7.48,2.08-3.58,6.44-2.2.13-3.55.08-5.72,0,8.03-7.55-9.02-10.7-5.72,0-1.38-.12-1.84,1.27-2.86.36-.12-3.21.17-6.46,0-9.66-.16-3.01-1.2-19.79-.72-21.1.67-1.83,2.03-.03,2.5-.36.8-.55-.25-1.89,1.07-2.15.35-.07,5.65,1.51,7.15.72h-.01Z"/>
          <path class="st34" d="M673.91,577.48c1.19,7.08-2,6.57-7.87,5.01-.35-7.12,2.12-4.65,7.87-5.01Z"/>
          <path class="st34" d="M673.91,568.89c3.01,4.92-4.28,6.49-7.87,4.29-.69-7.54,7.21-5.37,7.87-4.29Z"/>
          <path class="st37" d="M662.47,557.45c.29,1.99.41,3.58.72,6.44-1.42.06-2.88-.08-4.29,0-3.9-4.36-1.08-6.66,3.58-6.44h-.01Z"/>
          <path class="st37" d="M655.31,663.3c-4.23-.14-4.37-.85-6.44-2.86-2.85-3.1,5.78-2.36,6.08-2.15.72.51.28,3.92.36,5.01Z"/>
          <path class="st66" d="M663.9,536c.82,2.35.34,7.81-3.58,6.44-.08-4.35-3.16-7.25,3.58-6.44Z"/>
          <g>
            <path class="st7" d="M681.06,536.71c-11.31-.24.62,12.56,3.58,2.15,4.24,1.84,7.57,4.4,11.44,6.79,3.19,45.89,2.6,91.71,1.43,137.68-2.57.75-3.22,1.7-5.36,2.86-1.23-5.53,2.01-10.54-5.72-8.58l-.36-4.29c1.91-.67,2.03-1.38,2.15-1.43,2.45-.97,5.83-1.88,5.01-4.65-.95-1.99-6.6-.73-8.58-1.07-.13-.02-.03-1.35-2.15-1.43-4.12-.16-5.65.67-9.3,1.43-4.2.88-3.37-.98-7.87,2.15-2.5-2.41-11.54-4.54-10.01,1.43-1.28-.19-2.1-.59-2.86-.72.21-1.75,4.25-5.02,4.29-5.36.07-.56-1.43-.28-1.43-.36-.08-1.09.36-4.5-.36-5.01-.3-.21-8.93-.95-6.08,2.15-.1-.1-2.2-.43-2.15-1.79,0-.22,2.7-2.66,2.15-3.93,1.07.38,4.79-.1,6.44,0,.8.05,1.54-.02,2.15,0,2.37.1,4.78-.06,7.15,0,.84.02,1.29.02,2.15,0,2.37-.05,4.78.1,7.15,0,1.25-.05,1.95.17,3.58,0,3.48-.37,7.39,1.71,6.44-3.22-.89-1.92-5.99-.79-7.87-1.07-2.07-.31-5.08-.51-4.29-2.86,1.72.18,2.37-.74,2.86-.72.57.03.12.04.72,0,3.17-.19,11.05,3.73,7.87-4.29-5.73.73-6.73-3.39-7.15-3.58,16.6,1.35,2.52-9.01-.72-.72-.03-.02.08.07-.72,0,1.08-4.61-11.52-4.07-7.87.72-.71-.01-1.44.02-2.15,0,2.49-5.6-11.61-4.89-7.87,0-1.98-.08-4.44.34-6.44,0,1.75-3.61-3.49-4.26-2.86-.72-2.47-1.2-1.08-2.31.36-3.58,4.48-.16,23.69,1.21,26.46,0,1.5-.65-.38-2.04-.36-2.15.17-.92,1.54-2.22.36-3.58-3.51.48-10.57-1.96-7.51,3.58h-2.15c2.07-5.32-9.94-5.32-7.87,0-.7-.04-1.44.06-2.15,0v-3.58c.07-.02-.24-1.34.36-1.43,3.17-.49,17.77.92,19.31,0,.62-.72.36-1.93.36-2.86,0-4.81-2.41-2.34-6.44-2.86,1.81-1.18,2.14-2.04,6.08-1.43,1.36-1.58-1.21-1.21-1.07-2.15.03-.2,2.65.31,1.07-2.86-2.16.49-10.66-1.76-7.51,2.86-1.11.03-1.76.02-2.86,0,3.64-3.72-5.71-3.26-6.79-2.86-.69.25-.23,2.11-.36,2.15-.62.16-.81.52-1.43.72,1.77-4.29-9.64-4.29-7.87,0-1.51-.49-2.1-.79-1.43-2.5,7.79-3.44,19.68-1,28.97-1.79.73-.06-.22-2.01,1.07-2.15,2.59-.26,5.27-.47,7.87-.72.65-.06.76.76,1.43.72,1.15-.07,14.37.15,7.87-3.58h-18.24c-1.56-2.41.83-2.72,1.07-3.58h7.87c.67,0,.73-.68,1.43-.72,1.1-.05,6.85,1.58,8.22.72.82-.51.26-3.22-.36-3.58-4.32-2.36-13.58,1.05-17.52-.72-.24-.11-.61-2.01-1.07-2.86-.19-.35.16-1.55,0-2.15-.36-1.29-1.19-.95-1.43-3.58-.02-.21,2.54-1.5,1.43-3.93-.68-1.4-5.28-1.38-6.44-1.07-1.38-3.08-1.87,1.44-2.15-4.29,5.87,1.57,9.05,2.08,7.87-5.01-5.28-2.53-7.24,2.52-7.87-4.29,3.59,2.2,10.88.63,7.87-4.29-4.98-3.59-9.34-1.85-9.3,4.29.13-.2.06-3.52,0-4.29-.08-1.06-1.13-2.26-1.43-5.01s-.42-4.45-.72-6.44c-.2-1.39-.5-2.85-.72-4.29,3.63.55,3.41-8.45-1.43-6.44-.11-1.4.03-2.88,0-4.29,3.92,1.37,4.4-4.09,3.58-6.44-1.3-3.7-4.4,1.46-5.01-4.29,7.2,2,6.88-8.48,0-5.01-.06-.3-4.32-2.08-1.43-5.01,7.7,5.13,16.31,9.21,23.6,15.02l.02.04h0Z"/>
            <g>
              <path class="st26" d="M698.29,601.11c-.27-18.48-.93-36.97-2.21-55.46-3.87-2.4-7.2-4.96-11.44-6.79-2.95,10.42-14.89-2.38-3.58-2.15-7.29-5.8-15.9-9.88-23.6-15.02-2.89,2.93,1.37,4.71,1.43,5.01,6.88-3.47,7.2,7.01,0,5.01.61,5.75,3.71.59,5.01,4.29.82,2.35.34,7.81-3.58,6.44.03,1.41-.11,2.89,0,4.29,4.84-2.02,5.06,6.98,1.43,6.44.21,1.44.51,2.9.72,4.29.29,1.99.41,3.58.72,6.44.3,2.75,1.35,3.95,1.43,5.01.04.48.08,1.91.07,2.99.55-5.06,4.62-6.31,9.23-2.99,3.01,4.92-4.28,6.49-7.87,4.29.62,6.81,2.59,1.76,7.87,4.29,1.19,7.08-2,6.57-7.87,5.01.28,5.73.76,1.21,2.15,4.29,1.16-.31,5.76-.33,6.44,1.07,1.11,2.43-1.45,3.73-1.43,3.93.24,2.62,1.07,2.29,1.43,3.58.16.59-.19,1.79,0,2.15.46.85.84,2.75,1.07,2.86,3.94,1.76,13.21-1.65,17.52.72.62.36,1.18,3.06.36,3.58-1.38.86-7.12-.77-8.22-.72-.7.03-.76.71-1.43.72h-7.87c-.24.86-2.63,1.17-1.07,3.58h18.24c6.51,3.73-6.72,3.51-7.87,3.58-.67.04-.78-.78-1.43-.72-2.59.24-5.28.45-7.87.72-1.29.13-.34,2.08-1.07,2.15-9.29.78-21.18-1.65-28.97,1.79-.67,1.72-.08,2.01,1.43,2.5-1.77-4.29,9.64-4.29,7.87,0,.62-.19.81-.55,1.43-.72.12-.03-.33-1.89.36-2.15,1.09-.4,10.44-.86,6.79,2.86,1.1.02,1.75.03,2.86,0-3.15-4.62,5.35-2.37,7.51-2.86,1.58,3.17-1.04,2.66-1.07,2.86-.14.94,2.44.57,1.07,2.15-3.94-.61-4.27.25-6.08,1.43,4.03.52,6.44-1.94,6.44,2.86,0,.93.27,2.14-.36,2.86-1.54.92-16.14-.49-19.31,0-.6.09-.29,1.41-.36,1.43v3.58c.7.06,1.44-.04,2.15,0-2.07-5.32,9.94-5.32,7.87,0h2.15c-3.06-5.54,4-3.1,7.51-3.58,1.18,1.36-.19,2.65-.36,3.58-.02.11,1.86,1.49.36,2.15-.53.23-1.67.37-3.19.44,2.11.21,3.99,1.24,3.54,3.14.8.07.69-.02.72,0,3.23-8.29,17.32,2.07.72.72.42.18,1.42,4.3,7.15,3.58,3.18,8.02-4.7,4.1-7.87,4.29-.6.04-.14.03-.72,0-.49-.02-1.14.9-2.86.72-.79,2.35,2.22,2.55,4.29,2.86,1.88.28,6.98-.85,7.87,1.07.95,4.93-2.96,2.84-6.44,3.22-1.63.17-2.32-.05-3.58,0-2.37.1-4.78-.05-7.15,0-.86.02-1.31.02-2.15,0-2.37-.06-4.78.1-7.15,0-.6-.02-1.35.05-2.15,0-1.65-.1-5.36.38-6.44,0,.56,1.27-2.14,3.71-2.15,3.93-.06,1.36,2.05,1.69,2.15,1.79-2.85-3.1,5.78-2.36,6.08-2.15.72.51.28,3.92.36,5.01,0,.07,1.5-.2,1.43.36-.04.34-4.08,3.62-4.29,5.36.76.12,1.58.52,2.86.72-1.52-5.97,7.52-3.84,10.01-1.43,4.5-3.13,3.67-1.27,7.87-2.15,3.65-.76,5.17-1.59,9.3-1.43,2.11.08,2.02,1.41,2.15,1.43,1.98.34,7.63-.92,8.58,1.07.83,2.77-2.56,3.67-5.01,4.65-.12.05-.24.77-2.15,1.43l.36,4.29c7.73-1.96,4.49,3.05,5.72,8.58,2.14-1.16,2.8-2.11,5.36-2.86.34-13.25.62-26.48.78-39.71v-42.55h0Z"/>
              <path class="st26" d="M660.58,635.05c.11,0,.21,0,.32.01-.11,0-.21,0-.32-.01Z"/>
              <path class="st26" d="M647.8,634.69c-1.44,1.26-2.82,2.37-.36,3.58-.63-3.54,4.61-2.9,2.86.72,2,.34,4.45-.08,6.44,0-1.95-2.56.96-3.97,3.84-3.93-5.36-.17-10.68-.43-12.78-.36h0Z"/>
              <path class="st26" d="M660.9,635.06c2.51.12,4.85,1.36,3.71,3.92.71.02,1.44-.01,2.15,0-1.64-2.15,0-3.45,2.22-3.8-2.36.03-5.21-.04-8.07-.13h-.01Z"/>
              <path class="st26" d="M668.97,635.19c.76,0,1.47-.03,2.11-.06-.7-.07-1.43-.05-2.11.06Z"/>
              <path class="st26" d="M664.68,571.88c-.05.41-.07.84-.07,1.3.05-.08.07-.62.07-1.3Z"/>
            </g>
            <g>
              <path class="st66" d="M681.06,536.71c1.29.03,1.31.47,2.15.72,1.25.37,1.34,1.39,1.43,1.43-2.95,10.42-14.89-2.38-3.58-2.15h0Z"/>
              <path class="st34" d="M676.41,621.82c.76-.31,15.69-.31,16.45,0,6.49,2.67-4.73,3.83-7.15,3.58-1.49-.15.12-2.77-1.43-2.15-.34.14-.63,2.03-1.43,2.15-2.57.36-12.39-1.14-6.44-3.58Z"/>
              <path class="st61" d="M683.21,658.3c1.81,1.39,2.56,1.71,2.15,4.29-3.75.25-9.94.38-13.59,0l-.72-4.29c3.44-.34,8.62-.18,12.16,0Z"/>
              <path class="st34" d="M667.11,546.72c3.29-2.33,9.8,1.84,6.79,6.08-.34.48-6.52.55-6.79.36-.59-.42-.59-6.02,0-6.44Z"/>
              <path class="st34" d="M667.11,557.45c3.29-2.33,9.8,1.84,6.79,6.08-.34.48-6.52.55-6.79.36-.59-.42-.59-6.02,0-6.44Z"/>
              <path class="st34" d="M677.13,557.45c3.29-2.33,9.8,1.84,6.79,6.08-.34.48-6.52.55-6.79.36-.59-.42-.59-6.02,0-6.44Z"/>
              <path class="st66" d="M677.13,546.72c2.17-1.54,9.24-.15,6.79,5.36-2.19,4.95-11.4-2.1-6.79-5.36Z"/>
              <path class="st34" d="M686.42,557.45c2.17-1.54,9.24-.15,6.79,5.36-2.19,4.95-11.4-2.1-6.79-5.36Z"/>
              <path class="st66" d="M667.83,536c6.64-2.94,7.77,5.2,5.01,6.44-6.16,2.75-7.94-5.14-5.01-6.44Z"/>
              <path class="st34" d="M677.13,568.18c9.57-1.85,9.86,7.81,0,5.72v-5.72Z"/>
              <path class="st34" d="M690,577.48c4.1,0,4.8.62,3.22,4.65-6.78,5.06-12.59-4.64-3.22-4.65Z"/>
              <path class="st34" d="M686.42,568.18c9.57-1.85,9.86,7.81,0,5.72v-5.72Z"/>
              <path class="st34" d="M677.13,577.48c4.3,1.22,7.77-1.62,6.79,4.65l-6.79,1.07v-5.72h0Z"/>
              <path class="st34" d="M686.42,546.72c2.65-1.88,9.85,1.06,6.79,5.36-2.31,3.25-11.32-2.16-6.79-5.36Z"/>
              <path class="st34" d="M686.42,586.77c2.11-.94,9.59-.36,7.51,3.93-2,4.13-13.76-1.16-7.51-3.93Z"/>
              <path class="st34" d="M683.21,642.56c3.18,8.02-4.7,4.1-7.87,4.29.76-6.15,2.58-4.03,7.87-4.29Z"/>
              <path class="st34" d="M677.13,586.77c2.19-.97,8.76-.14,6.79,3.93-2.03,4.21-12.95-1.21-6.79-3.93Z"/>
              <path class="st34" d="M686.42,642.56c2.09-.93,8.44.37,6.79,3.93-1.94,4.19-12.99-1.18-6.79-3.93Z"/>
              <path class="st34" d="M685.35,662.59c.41-2.59-.34-2.9-2.15-4.29,1.94.1,9.14-.76,10.01,1.07.77,4.75-4.62,3-7.87,3.22h.01Z"/>
              <path class="st66" d="M688.21,671.88l-3.58-5.72c1.98.34,7.63-.92,8.58,1.07.83,2.77-2.56,3.67-5.01,4.65h.01Z"/>
              <path class="st37" d="M657.82,658.3c2.43-1.08,9.49.12,6.79,3.93-1.94,2.74-13.3-1.05-6.79-3.93Z"/>
              <path class="st34" d="M677.48,654.72c-2.33.37-1.21-2.51-1.43-4.29,1.88.28,6.98-.85,7.87,1.07.95,4.93-2.96,2.84-6.44,3.22Z"/>
              <path class="st34" d="M685.71,628.97c.76-.54,11.22-.76,8.22,3.22-1.18,1.58-13,.17-8.22-3.22Z"/>
              <path class="st37" d="M676.41,628.26c.46-.16,8.67.19,7.51,3.22-1.51,3.95-13.84-1.06-7.51-3.22Z"/>
              <path class="st37" d="M664.61,638.98c-2.61-.07-5.26.11-7.87,0-3.74-4.89,10.36-5.6,7.87,0Z"/>
              <path class="st28" d="M673.91,632.55h-7.15c-3.06-5.54,4-3.1,7.51-3.58,1.18,1.36-.19,2.65-.36,3.58Z"/>
              <path class="st34" d="M693.22,601.08c.62.36,1.18,3.06.36,3.58-1.38.86-7.12-.77-8.22-.72-1.66-3.58,6.91-3.41,7.87-2.86h-.01Z"/>
              <path class="st34" d="M693.22,608.23c6.51,3.73-6.72,3.51-7.87,3.58-2.12-4.27,6.65-4.27,7.87-3.58Z"/>
              <path class="st34" d="M692.15,650.43l.72,4.29c-9.73,1.16-11.13-3.62-.72-4.29Z"/>
              <path class="st37" d="M676.05,638.98s.08-.21-.72-.72c3.23-8.29,17.32,2.07.72.72Z"/>
              <path class="st37" d="M664.61,632.55c-2.59,0-5.29.16-7.87,0-2.07-5.32,9.94-5.32,7.87,0Z"/>
              <path class="st66" d="M658.89,531.7c-.17-1.57.27-3.57,0-5.01,6.88-3.47,7.2,7.01,0,5.01Z"/>
              <path class="st34" d="M676.41,614.67c11.39.83,9.6,4.48-.72,3.58l.72-3.58Z"/>
              <path class="st37" d="M683.56,594.64v3.58c-11.31.59-11.05-3.05,0-3.58Z"/>
              <path class="st37" d="M673.19,618.24c-2.14.03-4.3-.05-6.44,0-3.15-4.62,5.35-2.37,7.51-2.86,1.58,3.17-1.04,2.66-1.07,2.86Z"/>
              <path class="st34" d="M685.71,615.38c.87-.57,10.57-.28,8.22,2.5-1.08,1.29-12.71.45-8.22-2.5Z"/>
              <path class="st37" d="M685.71,635.41c.5-.37,7.37.8,7.51,1.79.47,3.24-12.45,1.94-7.51-1.79Z"/>
              <path class="st34" d="M686.42,595.36c1.11-.39,8.31-.76,7.51,1.79-.97,3.07-12.86.08-7.51-1.79Z"/>
              <path class="st28" d="M671.05,658.3l.72,4.29c-7.81-.82-8.97-3.47-.72-4.29Z"/>
              <path class="st37" d="M655.31,618.24c-.5.16-7.39.15-7.87,0-1.77-4.29,9.64-4.29,7.87,0Z"/>
              <path class="st37" d="M663.9,618.24c-2.14-.04-5.41.61-7.15-.72.12-.03-.33-1.89.36-2.15,1.09-.4,10.44-.86,6.79,2.86h0Z"/>
              <path class="st66" d="M661.75,553.16c-.09-.59-.53-.95-.72-2.15-.21-1.37-.63-3.14-.72-4.29,4.84-2.02,5.06,6.98,1.43,6.44h0Z"/>
              <path class="st28" d="M650.31,638.98c-1.27-.22-1.51-.06-2.86-.72-.63-3.54,4.61-2.9,2.86.72Z"/>
            </g>
          </g>
          <path class="st37" d="M653.17,563.89c-1.88-.07-3.85.16-5.72,0-3.29-10.7,13.75-7.55,5.72,0Z"/>
          <g>
            <path class="st36" d="M644.59,554.59c.17,3.19-.12,6.45,0,9.66,1.02.91,1.48-.47,2.86-.36,1.87.16,3.84-.07,5.72,0,2.18.08,3.52.13,5.72,0,1.41-.08,2.87.06,4.29,0,.3,2.75,1.35,3.95,1.43,5.01-16.61-3.48-3.79,10.22,0,4.29-.04-6.14,4.31-7.88,9.3-4.29-.66-1.08-8.56-3.25-7.87,4.29.62,6.81,2.59,1.76,7.87,4.29-5.75.36-8.21-2.11-7.87,5.01.28,5.73.76,1.21,2.15,4.29-2.68.71-2.22,1.16-2.15,3.93l7.15,1.07c.24,2.62,1.07,2.29,1.43,3.58-1.35.24-9.32-1-8.58,1.79l8.58.36c.46.85.84,2.75,1.07,2.86,3.94,1.76,13.21-1.65,17.52.72-.96-.55-9.53-.71-7.87,2.86-.7.03-.76.71-1.43.72,2.23-4.36-5.82-4.36-7.51-3.58-2.44,1.14-.31,3.4-.36,3.58-.24.86-2.63,1.17-1.07,3.58h18.24c-1.22-.7-9.99-.7-7.87,3.58-.67.04-.78-.78-1.43-.72,1.59-4.82-11.7-3.92-7.87.72-1.29.13-.34,2.08-1.07,2.15-9.29.78-21.18-1.65-28.97,1.79-.67,1.72-.08,2.01,1.43,2.5.47.15,7.37.16,7.87,0,.62-.19.81-.55,1.43-.72,1.74,1.32,5.01.67,7.15.72,1.1.02,1.75.03,2.86,0,2.14-.05,4.3.03,6.44,0-.14.94,2.44.57,1.07,2.15-3.94-.61-4.27.25-6.08,1.43-.34.22-1.69-.39-2.15.36-1.7,4.24,6.16,3.76,8.58,2.5,0,.93.27,2.14-.36,2.86-1.54.92-16.14-.49-19.31,0-.6.09-.29,1.41-.36,1.43-1.44.31-6.2-.39-6.79,0-1.77,4.64,3.81,3.3,6.79,3.58.7.06,1.44-.04,2.15,0,2.58.16,5.28,0,7.87,0h9.3c-.02.11,1.86,1.49.36,2.15-2.78,1.21-21.99-.16-26.46,0-1.44,1.26-2.82,2.37-.36,3.58,1.35.66,1.6.5,2.86.72,1.99.34,4.45-.08,6.44,0,2.61.11,5.26-.07,7.87,0,.71.02,1.44-.01,2.15,0,2.23.04,6.86-.81,7.87-.72.8.07.69-.02.72,0,.79.5.67.7.72.72.42.18,1.42,4.3,7.15,3.58-5.29.26-7.1-1.86-7.87,4.29-.6.04-.14.03-.72,0,.04-9.86-18.17-.88-2.86.72-.79,2.35,2.22,2.55,4.29,2.86.22,1.79-.9,4.66,1.43,4.29-1.63.17-2.32-.05-3.58,0,4.32-6.18-11.48-6.18-7.15,0-.86.02-1.31.02-2.15,0,2.21-5.24-11.31-5.84-7.15,0-.6-.02-1.35.05-2.15,0,1.2-8.2-13.58-2.52-6.44,0,.56,1.27-2.14,3.71-2.15,3.93-.06,1.36,2.05,1.69,2.15,1.79,2.07,2.01,2.21,2.72,6.44,2.86,0,.07,1.5-.2,1.43.36-.04.34-4.08,3.62-4.29,5.36-4.17-.69-8.51.88-8.94.72-.81-.3-2.35-7.33-2.5-8.58-3.59-29.76-.1-74.04-.72-105.85l4.29-.72.02-.05h0Z"/>
            <g>
              <path class="st28" d="M664.61,568.89c.06.77.13,4.09,0,4.29-3.79,5.92-16.61-7.77,0-4.29Z"/>
              <path class="st37" d="M668.19,586.77c1.16-.31,5.76-.33,6.44,1.07,1.11,2.43-1.45,3.73-1.43,3.93l-7.15-1.07c-.07-2.78-.53-3.22,2.15-3.93h-.01Z"/>
              <path class="st37" d="M674.62,646.85c-.49-.02-1.14.9-2.86.72-15.31-1.6,2.9-10.58,2.86-.72Z"/>
              <path class="st37" d="M673.91,654.72c-2.37.1-4.78-.05-7.15,0-4.32-6.18,11.48-6.18,7.15,0Z"/>
              <path class="st37" d="M655.31,654.72c-1.65-.1-5.36.38-6.44,0-7.14-2.52,7.63-8.2,6.44,0Z"/>
              <path class="st34" d="M683.92,604.65h-7.87c.05-.17-2.08-2.43.36-3.58,1.69-.79,9.74-.78,7.51,3.58Z"/>
              <path class="st37" d="M668.19,621.82c4.03.52,6.44-1.94,6.44,2.86-2.42,1.26-10.28,1.73-8.58-2.5.46-.75,1.81-.14,2.15-.36h-.01Z"/>
              <path class="st37" d="M664.61,654.72c-2.37-.06-4.78.1-7.15,0-4.16-5.84,9.36-5.24,7.15,0Z"/>
              <path class="st34" d="M683.92,611.09c-2.59.24-5.28.45-7.87.72-3.83-4.63,9.45-5.54,7.87-.72Z"/>
              <path class="st37" d="M674.62,638.27c-1-.09-5.64.75-7.87.72-3.65-4.79,8.95-5.32,7.87-.72Z"/>
              <path class="st28" d="M654.6,628.97v3.58c-2.99-.27-8.56,1.07-6.79-3.58.59-.39,5.35.31,6.79,0Z"/>
              <path class="st28" d="M674.62,595.36c.16.59-.19,1.79,0,2.15l-8.58-.36c-.73-2.79,7.23-1.54,8.58-1.79h0Z"/>
              <path class="st37" d="M647.8,568.18h6.44c3.74,6.37-1.54,6.05-6.44,5.72v-5.72Z"/>
              <path class="st28" d="M657.82,577.48c9.78-2.11,9.65,7.54,0,5.72v-5.72Z"/>
              <path class="st37" d="M648.52,577.48c9.1-4.04,9.06,9.77,0,5.72-1.59-.71-1.58-5.02,0-5.72Z"/>
              <path class="st37" d="M657.1,586.77c.98-.69,9.84-1.11,7.51,3.93-1.79,3.87-12.06-.73-7.51-3.93Z"/>
              <path class="st37" d="M648.52,586.77c2.2-.97,8.52-.29,6.79,3.93-3.55,4.23-11.85-1.69-6.79-3.93Z"/>
              <path class="st37" d="M657.82,642.56c10.04-.95,9.29,6.57-.72,4.29l.72-4.29Z"/>
              <path class="st37" d="M647.8,643.28c3.18.35,8.21-1.62,7.51,3.22-1.02,2.14-10.65,2.05-7.51-3.22Z"/>
              <path class="st37" d="M667.11,608.23c1.66-.77,10.11.03,7.51,3.22-1.55,1.9-13.63-.37-7.51-3.22Z"/>
              <path class="st37" d="M667.11,601.08c1.66-.77,10.11.03,7.51,3.22-1.55,1.9-13.63-.37-7.51-3.22Z"/>
              <path class="st37" d="M657.1,621.82c.34-.24,7.92-.1,8.22.36,3.28,4.88-14.08,3.8-8.22-.36Z"/>
              <path class="st37" d="M657.1,601.08c.88-.63,10.37-.59,7.51,3.22-1.26,1.68-12.02-.02-7.51-3.22Z"/>
              <path class="st28" d="M657.1,608.23c.88-.63,10.37-.59,7.51,3.22-1.26,1.68-12.02-.02-7.51-3.22Z"/>
              <path class="st28" d="M647.8,608.23c1.16-.82,10.17-.04,7.51,3.22-1.39,1.7-11.98-.05-7.51-3.22Z"/>
              <path class="st37" d="M648.52,601.08c1.89-.88,9.18.3,6.79,3.22-1.62,1.98-12.59-.53-6.79-3.22Z"/>
              <path class="st37" d="M648.52,621.82c1.42-.58,7.99-.43,6.79,2.5-1.37,3.35-12.27-.26-6.79-2.5Z"/>
              <path class="st37" d="M657.1,595.36c.3-.2,6.85-.2,7.15,0,5.82,3.83-12.96,3.82-7.15,0Z"/>
              <path class="st37" d="M647.8,595.36c.3-.2,6.85-.2,7.15,0,5.82,3.83-12.96,3.82-7.15,0Z"/>
            </g>
          </g>
          <path class="st28" d="M654.6,536c.19,2.16-.03,4.34,0,6.44-10.35,2.34-10.34-8.78,0-6.44Z"/>
          <path class="st37" d="M654.6,546.72c-.08,1.9-.34,3.99.72,5.72-1.34.03-6.76,2.14-7.87-.36-2.52-5.68,2.85-5.98,7.15-5.36Z"/>
          <path class="st37" d="M654.6,531.7c-1.5.79-6.8-.78-7.15-.72-1.42-4.78,1.67-7.67,6.08-5.72,1.75.78.94,4.83,1.07,6.44h0Z"/>
          <path class="st61" d="M658.17,553.16c-.51.08-.77-.82-2.15-.72-.94-7.81,5-5.33,2.15.72Z"/>
        </g>
        <g>
          <path class="st40" d="M595.95,509.53c.83,7.84,2.78,16.36,3.58,22.17.55,4.01.85,8.17,1.43,12.16.91,6.25,3.12,13.3,3.58,20.38,2.38,36.94-1.26,76.9-.72,114.08-4.5,1.87-9.37,2.22-13.59,5.72-7.8-4.29-6.69,3.05-12.16-1.43-1.45-1.19-2.78-1.64-2.86-1.79-.27-.53,2.74-9.83,2.86-11.44.26-3.48-.62-7.48,0-11.09,4.11-.49,15.12,1.7,18.24.72,5.32-1.68,2.28-22.36,1.79-26.82-1.47-13.37-5.77-26.36-5.01-40.05l-5.01,1.07c-.14-14.57-.23-29.11-1.43-43.63-.21-2.57-1.4-4.75-1.43-5.01-.56-5.65-1.31-10.2-2.15-15.73-.07-.46.07-.97,0-1.43-.21-1.45-.51-2.89-.72-4.29-.07-.46.06-.97,0-1.43-.37-2.91-.3-6.62-1.43-9.3.07,0-.24-1.37.36-1.43,5.13-.48,9.75.92,14.66-1.43h.01Z"/>
          <path class="st56" d="M560.19,668.31c-2.63-.55-5.01.61-7.15.72-.82.04-4.08-.04-4.29,0,2.13-4.09,1.43-11.51,1.43-16.45,8.3-4.02,4.91,13.55,5.72,14.66.26.35,2.75.42,4.29,1.07h0Z"/>
          <path class="st60" d="M578.07,490.22h.72c.11,2.36-.16,4.8,0,7.15-11.51,1.74-32.55-2.63-42.91.72-.54.17-1.03-1.46-2.15.36-2.71,15.08-3.07,30.46-3.58,45.77.32.65,1.04.22,1.43.36,9.04,3.18,42.08-2.76,53.64,0,.03.26,1.22,2.44,1.43,5.01l-57.93.72c.97-19.04,1.08-38.19,2.86-57.22.14-1.44.65-2.23.72-2.86,15.25.05,30.53-.07,45.77,0h0Z"/>
          <path class="st60" d="M586.65,549.58c1.2,14.52,1.29,29.06,1.43,43.63.13,14.35,1.47,40.25,0,53.28-1.03,9.08-8.38,2.27-10.01,11.8-.62,3.6.26,7.61,0,11.09-.12,1.61-3.13,10.92-2.86,11.44.08.15,1.41.6,2.86,1.79-2.85-2.28-3.41,1-5.36.72-.4-.06-5.86-5.03-6.08-5.36-.24-.37-.92-4.53-2.86-7.51-.04-.06,1.61-.28.36-1.43-.15-.14-3.22-.42-3.93-.72-1.54-.65-4.03-.72-4.29-1.07-.81-1.12,2.58-18.68-5.72-14.66,0-20.08,1.03-42.44,0-62.22-.07-1.38.37-7.35-.36-7.87h-23.24c-.56-11.06,1.59-21.37,2.15-32.18l57.93-.72h-.02Z"/>
          <path class="st60" d="M583.08,528.84c.83,5.54,1.59,10.08,2.15,15.73-11.56-2.76-44.6,3.18-53.64,0-.91-5.14,1.48-10.1,2.15-15.02l49.35-.72h-.01Z"/>
          <path class="st40" d="M578.07,658.3c1.63-9.53,8.99-2.73,10.01-11.8,1.47-13.03.13-38.94,0-53.28l5.01-1.07c-.77,13.69,3.54,26.69,5.01,40.05.49,4.46,3.53,25.14-1.79,26.82-3.12.98-14.12-1.21-18.24-.72h0Z"/>
          <path class="st60" d="M580.93,512.39c1.13,2.68,1.06,6.39,1.43,9.3h-47.92c.36-3.31.45-6.69.72-10.01,14.99.43,30.8,1.9,45.77.72h0Z"/>
          <path class="st56" d="M594.52,498.09c.22,3.84,1.02,7.61,1.43,11.44-4.91,2.35-9.53.95-14.66,1.43-.59.06-.28,1.42-.36,1.43-14.97,1.18-30.78-.29-45.77-.72.04-.47-.03-.96,0-1.43l44.7.72c1.83-.72-.85-10.5-1.07-12.87h15.73Z"/>
          <path class="st60" d="M582.36,523.12c.21,1.4.5,2.84.72,4.29h-49.35c.14-1.16-.13-2.42,0-3.58l48.63-.72h0Z"/>
          <path class="st60" d="M582.36,521.69c.06.46-.07.97,0,1.43l-48.63.72c.14-1.26.65-1.57.72-2.15h47.92,0Z"/>
          <path class="st56" d="M583.08,527.41c.07.46-.07.98,0,1.43l-49.35.72c.04-.32-.19-.6,0-2.15h49.35Z"/>
          <path class="st6" d="M578.79,497.37c.02.24-.02.48,0,.72.22,2.38,2.9,12.16,1.07,12.87l-44.7-.72c.3-4.04,1.17-8.05.72-12.16,10.37-3.35,31.41,1.03,42.91-.72h0Z"/>
          <path class="st58" d="M535.87,498.09c.46,4.11-.42,8.12-.72,12.16-.03.47.04.96,0,1.43-.27,3.32-.36,6.71-.72,10.01-.06.57-.57.88-.72,2.15-.13,1.16.14,2.42,0,3.58-.19,1.55.04,1.82,0,2.15-.66,4.92-3.05,9.88-2.15,15.02-.39-.14-1.11.29-1.43-.36.51-15.31.86-30.7,3.58-45.77,1.12-1.82,1.61-.18,2.15-.36h0Z"/>
          <path class="st40" d="M593.81,491.65c.08,2.08.6,4.4.72,6.44h-15.73c-.02-.24.02-.48,0-.72-.16-2.36.11-4.79,0-7.15,4.38.02,11.65-1.13,15.02,1.43h-.01Z"/>
        </g>
        <g>
          <path class="st27" d="M642.44,407.26c.66,2.25,2.18.98,2.86,3.22,1.05,3.46.99,9.47,1.43,13.23-.08.01.04,1.11-1.43.72-.14-3.37-2.34-5.58-5.72-4.29-.65.25-1.01.55-1.43,1.07-1.33,44.78,1.27,89.42,2.15,134.1.62,31.81-2.88,76.09.72,105.85-3-.27-5.44-1.61-8.58-1.43.05-35.47.02-71.06,0-106.57v-51.49c.07-27.11-.77-54.45,0-81.53.06-2.1-.45-9.24,0-10.37.81-2.06,8.5,2.09,7.87-2.5.7.08,1.44-.05,2.15,0h-.02Z"/>
          <path class="st27" d="M598.81,373.64c2.54-.27,2.68-2.6,3.58-4.29.26,4.88,7.2,1.04,9.3,1.43,3.12.58,11.13,3.23,15.73,4.29-.54,4.65-1.7,6.63-.72,11.44.57,4.02-5.78,4.64-8.22,3.58-.89-.39-1.77-5.44-2.5-7.15-.1-10-4-12.56-6.44-1.43-3.27,6.41.14,12.33-10.37,8.58l-1.79,2.15c-1.4-.61-2.9-.37-4.29-.72-1.46-3.44,4.61-11.57-1.43-11.44.06-.72,1.52-1.73.36-2.86-1.9.89-3.29.95-4.65,2.86-.97-4.95,2.71-11.69,4.29-17.16l6.44.36c-.18,3.77-4.71,10.95.72,10.37h-.01Z"/>
          <path class="st61" d="M649.59,442.3c1.1,24.54.67,49.1.72,73.67-1.96-1.3-3.72-1.48-6.44-3.58l1.43-87.97c1.47.39,1.35-.7,1.43-.72,4.73-.89,2.68,14.63,2.86,18.6h0Z"/>
          <path class="st56" d="M625.27,339.31c1.84,5.99,3.32,11.87,5.01,17.88-3.18.76-7.85-2.57-10.73-2.15-3.51-4.42-5.85-3.88-10.73-2.15,0-.08-.81.33-.72-1.43.13-2.37-.66-15.32,0-16.45l.72-.72c5.96-.58,10.91,3.52,16.45,5.01h0Z"/>
          <path class="st54" d="M581.65,424.42c.45-.03,1-.08,1.43,0v56.5l-4.29.72c-.06-.88-1.42-1.48-1.43-1.79-.42-9.74.31-19.57,0-29.32l-1.43-1.07c2.15.31,1.39-1.91,1.43-3.22.23-6.79-.73-14.95,0-21.46.02-.2,2.13-.95,2.15-1.07.03,1.05,1.36.77,2.15.72h-.01Z"/>
          <path class="st44" d="M610.26,316.43c-1.79,1.63.03,4.08,0,4.29-.47,3.28-1.43,6.18-1.43,10.73-3.93.46-8.01,3.71-9.3,7.51l8.58-3.93c-.66,1.13.13,14.08,0,16.45-3.81,1.14-2.37,2.41-2.86,5.01-5.22.55-6.87,12.75-6.44,17.16-5.43.58-.9-6.6-.72-10.37l-6.44-.36c.11-.39-.11-1.04,0-1.43,10.86-4.08,8.27-12.54,6.44-20.74,1.8-5.22,3.73-13.66,6.44-18.24.1-.17,3.09-.3,3.58-1.43,1.18-2.77-1.82-1.69-1.43-2.86.15-.46,1.83-1.82,2.15-3.22.98.08.35.8,1.43,1.43h0Z"/>
          <path class="st56" d="M591.66,380.08c-.35,3.93-1.13,7.8-.72,11.8.89,1.16,1.54-.51,2.15-.36,1.39.35,2.89.1,4.29.72l1.43,14.3c-4.85-.25-10.11,1.19-15.02,0,.01-.24-.01-.48,0-.72.3-5.01,1.22-22.43,3.58-25.75,1.36-1.91,2.75-1.97,4.65-2.86,1.16,1.13-.29,2.14-.36,2.86h0Z"/>
          <path class="st40" d="M637.43,392.95c.07,0-.13,1.2,1.43,0,1.18,4.74,2.21,9.63,3.58,14.3-.7-.05-1.45.08-2.15,0-4.86-.55-9.77-.72-14.66,0l1.07-13.59c3.56-.14,7.06-.9,10.73-.72h0Z"/>
          <path class="st40" d="M630.28,357.19c1.61,5.72,3.49,11.39,5.01,17.16-3.54-.52-7.28-1.32-10.73-2.15-.44-5.77-.86-14.51-7.15-15.73,1.8.48,1.04-1.27,2.15-1.43,2.87-.43,7.55,2.9,10.73,2.15h-.01Z"/>
          <path class="st56" d="M636,377.22c1.32,5.11,1.6,10.67,2.86,15.73-1.56,1.2-1.36,0-1.43,0-1.49-1.09-3.85-1.51-5.72-2.15-1.7-.58-3.77.11-3.93,0-1.81-1.27-.76-2.77-1.07-4.29-.98-4.82.18-6.79.72-11.44,2.72.63,5.56,2.44,8.58,2.15h-.01Z"/>
          <path class="st56" d="M618.84,322.15c1.5,4.54,3.54,8.91,5.01,13.59-5.34-1.86-9.08-4.99-15.02-4.29,0-4.55.96-7.45,1.43-10.73l8.58,1.43h0Z"/>
          <path class="st35" d="M619.55,355.05c-1.1.16-.34,1.91-2.15,1.43-1.22-.24-4.22-1.46-5.01-.36l.72,14.3c4.37-2.71,7.81.91,11.44,1.79,3.44.83,7.19,1.63,10.73,2.15.25.94.47,1.92.72,2.86-3.02.29-5.86-1.52-8.58-2.15-4.61-1.06-12.62-3.71-15.73-4.29-.63-4.09,1.78-12.64-2.86-15.02.13-.9-.04-1.93,0-2.86,4.88-1.73,7.22-2.28,10.73,2.15h0Z"/>
          <path class="st27" d="M591.66,361.48c2.02-6.97,4.07-13.88,6.44-20.74,1.83,8.21,4.42,16.66-6.44,20.74Z"/>
          <path class="st28" d="M583.79,406.54c-.36,6.46,2.42,11.29-2.15,17.88-.79.06-2.11.34-2.15-.72.77-5.6-.65-14.69,4.29-17.88-.01.24.01.48,0,.72h.01Z"/>
          <path class="st41" d="M623.84,335.74c.35,1.13,1.04,2.32,1.43,3.58-5.54-1.49-10.49-5.58-16.45-5.01v-2.86c5.94-.69,9.68,2.43,15.02,4.29Z"/>
          <path class="st41" d="M616.69,317.86c.23.76,1.56,2.52,2.15,4.29l-8.58-1.43c.03-.21-1.79-2.66,0-4.29,1.43.84,4.76,2.01,6.44,1.43h-.01Z"/>
          <path class="st53" d="M622.41,420.13c3.12,80.42-2.93,162.6.72,243.17-.82.47-3.14,2.71-4.29,3.58-2.15.31-1.39-1.91-1.43-3.22-2.79-82.42-1.63-171.61,0-254.26v-.72c7.53-.62,4.78,5.59,5.01,11.44h-.01Z"/>
          <path class="st60" d="M614.55,409.4v261.05c-1.4,1.07-2.8,2.42-4.29,3.58,1.29-84.33-2.92-168.84-.72-253.18.1-3.92-.07-7.87,0-11.8.94-1.33,4.16.22,5.01.36h0Z"/>
          <path class="st27" d="M630.28,420.13c1.64,38.64-.72,81.65-.72,120.87s-.59,79.68.72,119.44c-1.28.24-3.92.92-5.01,1.43,2.28-80.07-3.05-161.86,0-241.74.14-3.68-.1-7.4,0-11.09l3.22-.36c.98.45,1.72,9.89,1.79,11.44h0Z"/>
          <path class="st28" d="M607.39,420.13l-.72,258.19c-.6.27-2.23-.26-2.86,0-.54-37.18,3.09-77.13.72-114.08-.46-7.08-2.67-14.13-3.58-20.38l.72-134.46s-.2-.74.72-.72,3.81-.32,4.29.36l.72,11.09h0Z"/>
          <path class="st30" d="M609.54,420.85c-2.2,84.35,2.01,168.85.72,253.18-.85.66-1.12,3.2-3.58,4.29l.72-258.19,2.15.72h0Z"/>
          <path class="st43" d="M617.41,409.4c-1.63,82.65-2.79,171.84,0,254.26.04,1.31-.72,3.53,1.43,3.22-1.49,1.12-2.8,2.44-4.29,3.58v-261.05c.89.15,1.94-.1,2.86,0h0Z"/>
          <path class="st72" d="M625.27,420.13c-3.05,79.88,2.28,161.67,0,241.74-.12.05-1.25.92-2.15,1.43-3.65-80.57,2.4-162.75-.72-243.17h2.87Z"/>
          <path class="st35" d="M632.43,541v12.16c.02,35.5.05,71.1,0,106.57-1.33.07-1.42.58-2.15.72-1.31-39.76-.71-79.65-.72-119.44h2.87Z"/>
          <path class="st28" d="M645.3,424.42l-1.43,87.97c-.62-.48-3.9-1.39-4.29-2.5v-89.76c3.38-1.29,5.58.92,5.72,4.29Z"/>
          <path class="st35" d="M632.43,420.13c-.77,27.08.07,54.43,0,81.53-.03,13.1,0,26.24,0,39.34h-2.86c0-39.22,2.35-82.23.72-120.87h2.15-.01Z"/>
          <path class="st41" d="M626.71,393.67l-1.07,13.59c4.9-.72,9.8-.55,14.66,0,.63,4.6-7.05.44-7.87,2.5-.45,1.13.06,8.27,0,10.37h-2.15c-.07-1.55-.8-10.99-1.79-11.44l-3.22.36c-.1,3.69.14,7.41,0,11.09h-2.86c-.23-5.85,2.53-12.07-5.01-11.44.02-.74-.02-1.4,0-2.15l5.01.36.72-13.23c1.63-.14,2.57.04,3.58,0h0Z"/>
          <path class="st40" d="M632.43,553.16v-12.16c0-13.1-.03-26.24,0-39.34v51.49h0Z"/>
          <path class="st43" d="M598.81,406.54c.88.05,2.21-.2,2.86,0,.05.01.69.67.72.72.12.2-.06.99,0,1.43-.92-.02-.66.72-.72.72-.92-.03-1.95-.1-2.86,0-1.52.16-3.45-.13-5.01-.36,2.8,27.34-1.04,55.34,0,82.61-3.37-2.56-10.64-1.41-15.02-1.43h-.72c1.5-3.11-.61-5.34-.72-6.79-.02-.33,1.44-1.67,1.43-1.79l4.29-.72c-.29,2.26.73,3.03,2.86,3.58.78.2,5.37.14,5.72-.36v-74.38c-8.98-3.91-4.76,13.19-5.72,18.24-.88-5.97-1.23-3.27-2.86-3.58-.43-.08-.98-.03-1.43,0,4.56-6.59,1.78-11.42,2.15-17.88,4.91,1.19,10.17-.25,15.02,0h0Z"/>
          <path class="st28" d="M615.98,382.94c.73,1.71,1.61,6.77,2.5,7.15,2.45,1.07,8.79.44,8.22-3.58.31,1.52-.73,3.02,1.07,4.29.16.11,2.24-.58,3.93,0h-22.53c-.59-.42.11-8.17.36-9.3.14-.28,3.64-5.13,3.93-5.01.53,2.29,1.6,4.31,2.5,6.44h.02Z"/>
          <path class="st60" d="M611.69,370.78c-2.1-.39-9.04,3.45-9.3-1.43.49-.92,1.09-3.8,1.43-5.01,1.96-.2,4.8-7.1,5.01-8.58,4.65,2.38,2.23,10.93,2.86,15.02Z"/>
          <path class="st27" d="M605.25,356.48c-.52,2.73-.64,5.04-1.43,7.87-.34,1.21-.94,4.08-1.43,5.01-.9,1.69-1.03,4.02-3.58,4.29-.44-4.42,1.21-16.62,6.44-17.16h0Z"/>
          <path class="st28" d="M593.09,391.52c-.61-.15-1.26,1.51-2.15.36-.41-4,.37-7.87.72-11.8,6.04-.13-.03,8.01,1.43,11.44h0Z"/>
          <path class="st44" d="M615.98,382.94c-.9-2.12-1.97-4.15-2.5-6.44-.29-.13-3.79,4.72-3.93,5.01,2.44-11.13,6.33-8.57,6.44,1.43h-.01Z"/>
          <path class="st30" d="M608.83,352.9c-.04.93.13,1.96,0,2.86-.21,1.48-3.04,8.38-5.01,8.58.79-2.82.91-5.14,1.43-7.87.49-2.6-.95-3.87,2.86-5.01-.1,1.76.72,1.35.72,1.43h0Z"/>
          <path class="st23" d="M608.83,331.45v2.86l-.72.72-8.58,3.93c1.29-3.8,5.36-7.05,9.3-7.51h0Z"/>
          <path class="st35" d="M585.94,428c2.46,16.64-1.84,39.22,0,56.5-2.13-.54-3.15-1.32-2.86-3.58v-56.5c1.63.31,1.98-2.39,2.86,3.58Z"/>
          <path class="st27" d="M617.41,356.48c6.29,1.23,6.71,9.96,7.15,15.73-3.64-.87-7.07-4.5-11.44-1.79l-.72-14.3c.78-1.1,3.79.12,5.01.36h0Z"/>
          <path class="st60" d="M598.81,409.4l.72,122.3c-.8-5.82-2.74-14.34-3.58-22.17-.41-3.83-1.21-7.6-1.43-11.44-.12-2.04-.64-4.36-.72-6.44-1.04-27.26,2.8-55.27,0-82.61,1.56.23,3.48.52,5.01.36h0Z"/>
          <path class="st43" d="M601.67,409.4l-.72,134.46c-.58-3.98-.88-8.15-1.43-12.16l-.72-122.3c.91-.1,1.94-.03,2.86,0h0Z"/>
          <path class="st56" d="M623.13,393.67l-.72,13.23-5.01-.36c.12-4.39-.08-8.83,0-13.23,1.3-1.38,5.44.38,5.72.36h.01Z"/>
          <path class="st27" d="M585.94,484.5c-1.84-17.28,2.46-39.86,0-56.5.97-5.04-3.25-22.15,5.72-18.24v74.38c-.35.49-4.94.56-5.72.36Z"/>
          <g>
            <path class="st35" d="M631.71,390.81c1.87.64,4.23,1.06,5.72,2.15-3.67-.18-7.17.57-10.73.72-1.01.04-1.95-.14-3.58,0-.29.03-4.43-1.74-5.72-.36-.08,4.41.12,8.84,0,13.23-.02.75.02,1.4,0,2.15v.72c-.92-.1-1.97.15-2.86,0s-4.07-1.69-5.01-.36c-.07,3.93.1,7.88,0,11.8l-2.15-.72-.72-11.09c-.48-.68-3.37-.33-4.29-.36-.06-.45.12-1.23,0-1.43,8.22,1.74,2.31-8.97,3.58-13.95-8.42-1.54-4.71,7.08-4.29,13.23-.65-.2-1.98.05-2.86,0l-1.43-14.3,1.79-2.15c10.51,3.75,7.1-2.17,10.37-8.58-.25,1.13-.95,8.88-.36,9.3h22.54,0Z"/>
            <path class="st56" d="M602.39,407.26s-.67-.7-.72-.72c-.42-6.15-4.13-14.77,4.29-13.23-1.26,4.98,4.64,15.69-3.58,13.95h.01Z"/>
            <path class="st56" d="M609.18,392.95c.25-.17,5.01-.13,5.36.36-1.66,2.26.11,13.09-1.07,13.95-.19.14-4.55-.15-4.65-.36-.3-.63-.21-13.54.36-13.95h0Z"/>
          </g>
        </g>
      </g>
      <g>
        <path class="st8" d="M463.64,692.63c-2.43.11-15.43-.46-16.09,0-.69.49-.79,4.83.72,5.72,6.82,4.01,53.49-2.43,65.44,1.43.36.12,4.31,3.92,6.44,3.93-1.55,2.48-7.57,3.04-5.01,6.79-24.54.02-49.12-.01-73.67,0,.26-6.17-.58-12.46-.72-18.6-.08-3.8.04-7.64,0-11.44,4.35,1.8,12.87,1.17,14.3-4.29,4.44,4.08,6.51,10.95,8.58,16.45h.01Z"/>
        <path class="st27" d="M518.33,703.94c.15-.34-4.3-4.37-4.96-4.61-10.82-3.82-62.17,3.4-65.89-1.77-5.52-7.66,11.08-5.31,15.59-5.31l.17-.71c-1.95-5.29-4.03-11.55-8.18-15.37-1.44,5.46-9.95,6.09-14.3,4.29.04,3.68-.07,7.39,0,11.08h-13.2l.09,19.84c26.46.06,56.34-.83,82.9-.71-1.18-5.14,4.43-5.34,7.79-6.73h0Z"/>
        <path class="st1" d="M523.72,621.82c-1.84,4.35-7.66,7.66-2.86,12.52-1.94,2.53-1.77-1.43-3.22-1.07-3.61.89-7.63,19.71-10.73,20.74-1.42.47-2.6-.67-3.93-.72-.09,0-.54-1.41-1.07-1.43-2.68-.09-7.6,8.64-10.01,11.44-.12.14-1.11-1.8-1.79-1.07-.3.32-1.25,4.79-1.43,5.01-1.52,1.86-12.14,12.43-12.16,13.59,2.93,4.53,8.24-4.58,10.73,3.22,1.37,4.32-2.37,4.8-3.58,8.58-2.15.01-5.3-.73-6.44-.72l-5.36-9.3c2.4,5.7-.22,4.97-2.5,10.01-1.95.03-3.78-.09-5.72,0-2.08-5.5-4.15-12.37-8.58-16.45.79-3-4.76-11.41-5.72-15.02,1.14-2.85,5.14-9.23,7.87-9.3,1.46,3.78,10.39,22.27,13.23,23.6,5.95,2.78,8.55,1.02,6.08-5.01,4.25-3.56-.36-2.32-.72-3.22-.07-.19.35-2.14-.72-3.93l2.15-2.15c7.34,5.39,7.59.47,10.73-1.43,5.51-3.35,5.51-3.78,10.01-8.58.52-.55,1.43,1.38,2.86-.36,3.16-3.84,11.92-22.53,15.02-28.97.92-1.9,2.01-3.79,2.86-5.72,3.24.7,3.18-2.98,7.15-.36-1.44,1.74-1.64,4.9-2.15,6.08v.02h0Z"/>
        <path class="st0" d="M525.86,615.74c-3.97-2.63-3.91,1.05-7.15.36-.85,1.93-1.95,3.82-2.86,5.72-3.1,6.43-11.86,25.13-15.02,28.97-1.43,1.74-2.34-.19-2.86.36-4.51,4.8-4.5,5.23-10.01,8.58-3.14,1.91-3.39,6.82-10.73,1.43l-2.15,2.15c1.06,1.8.64,3.74.72,3.93.36.9,4.97-.35.72,3.22,2.47,6.03-.13,7.78-6.08,5.01-2.84-1.33-11.77-19.82-13.23-23.6-2.72.07-6.73,6.44-7.87,9.3.97,3.61,6.51,12.02,5.72,15.02,4.15,3.81,6.23,10.07,8.18,15.37l-.17.71c-4.51,0-21.1-2.35-15.59,5.31,3.73,5.17,55.07-2.05,65.89,1.77-.43-2.66.93-4.78,2.13-7.09l-5.67-.71h-11.34c-4.69,1.27-10.05.74-14.88.71l.51-.71c1.48-2.84,4.35-3.64,3.12-7.5-2.48-7.8-7.8,1.31-10.73-3.22.02-1.16,10.64-11.73,12.16-13.59.18-.22,1.13-4.68,1.43-5.01.68-.72,1.67,1.21,1.79,1.07,2.42-2.8,7.33-11.53,10.01-11.44.53.02.98,1.43,1.07,1.43,1.33.05,2.52,1.18,3.93.72,3.1-1.03,7.12-19.85,10.73-20.74,1.44-.36,1.28,3.61,3.22,1.07-4.79-4.86,1.02-8.17,2.86-12.52.5-1.18.71-4.34,2.15-6.08h0ZM477.01,691.54h-2.61c-.85,1.26-3.56.7-4.96.71l.46-.71c2.12-3.87,4.17-3.68,1.96-8.93l5.15,8.93Z"/>
        <path class="st59" d="M469.36,692.63c2.09-.03,5.17-.67,7.87-.72,1.14-.02,4.28.73,6.44.72,10.74-.07,21.44-1.43,32.18,0-1.28,2.52-3.1,3.06-2.15,7.15-11.95-3.86-58.63,2.58-65.44-1.43-1.51-.89-1.41-5.23-.72-5.72.66-.46,13.66.11,16.09,0,1.94-.09,3.77.03,5.72,0h.01Z"/>
        <path class="st27" d="M550.18,590.35c1.03,19.79,0,42.14,0,62.22,0,4.94.7,12.36-1.43,16.45-10.23,2.14-8.81,7.32-10.37,7.87-.64.22-3.45-.95-5.36-.72-1.36.17-2.98-.22-4.29,0,3.48-2.74.49-6.47.72-6.79.55-.79,2.45.33,3.58-1.43,1.01-1.58,1.7-6.7,3.58-8.58-.11-1.57-5.53-7.87-6.44-9.66-2.68-5.23-2.01-5.49-3.58-10.37-.43-1.35-2.55-.86-2.86-1.43-.26-.49,4-8.9,5.72-8.94.89.81,1.9,1.96,2.86.36-3.53-3.65,1.05-9.7,0-14.3-.08-.33-1.48-.21-2.15-1.79,3.14-1.88,1.19-5.12-2.15-4.29-.11-.17.1-.53,0-.72,14.2-1.22.38-8.66-2.15-2.15-.78-1.07-.55-1.9-1.43-2.15,1.37-4.21,2.63-8.32,2.15-12.87h.72c7.52-.15,15.3-1.3,22.89-.72h0Z"/>
        <path class="st15" d="M529.44,628.97c-1.73.04-5.98,8.45-5.72,8.94.31.57,2.43.08,2.86,1.43,1.57,4.88.9,5.14,3.58,10.37-.78,1.33-5.65,9.1-5.72,9.66-.32,2.67,4.59,4.05.36,5.36-.32-6.17-8.83,6.78-8.94,7.51-.19,1.26,3.98,6.24,5.01,7.51-3.13.9-14.43,1.45-15.02,4.65.27,4.91,7.2,5.56,10.73,4.65.03.94-.33,2.82-.72,3.58-10.74-1.43-21.44-.07-32.18,0,1.21-3.78,4.95-4.27,3.58-8.58,5.29-.21,6.64-5.53,9.3-8.94.5-.64-1.21-1.51-.72-2.15.21-.27,3.81-1.46,5.72-3.58.79-.87,3.68-6.88,4.65-6.79,1.21,1.04,3.43,6.36,5.36,3.93-1.93-1.65-4.75-8.14-5.72-9.3-.2-.24-5.81.22-2.86-3.93,1.33.05,2.52,1.18,3.93.72,3.1-1.03,7.12-19.85,10.73-20.74,1.44-.36,1.28,3.61,3.22,1.07-4.79-4.86,1.02-8.17,2.86-12.52,3.95.79,3.36,4.99,5.72,7.15h-.01Z"/>
        <path class="st50" d="M524.43,659.37c.07-.56,4.94-8.33,5.72-9.66-2.68-5.23-2.01-5.49-3.58-10.37-.43-1.35-2.55-.86-2.86-1.43-.26-.49,4-8.9,5.72-8.94-2.36-2.16-1.77-6.36-5.72-7.15-1.84,4.35-7.66,7.66-2.86,12.52-1.94,2.53-1.77-1.43-3.22-1.07-3.61.89-7.63,19.71-10.73,20.74-1.42.47-2.6-.67-3.93-.72-2.95,4.15,2.66,3.7,2.86,3.93.97,1.16,3.79,7.64,5.72,9.3-1.93,2.43-4.16-2.89-5.36-3.93-.97-.09-3.86,5.92-4.65,6.79-1.92,2.12-5.51,3.31-5.72,3.58-.5.64,1.21,1.51.72,2.15-2.65,3.41-4.01,8.73-9.3,8.94,1.23,3.86-1.64,4.66-3.12,7.5l-.51.71c4.83.03,10.18.57,14.88-.71h11.34l5.67.71s.47.26.72-.71c.22-.85.37-1.87.35-2.49-3.52.91-10.46.26-10.73-4.65.59-3.2,11.88-3.75,15.02-4.65-1.02-1.27-5.19-6.25-5.01-7.51.11-.73,8.62-13.68,8.94-7.51,4.23-1.31-.68-2.69-.36-5.36h0Z"/>
        <path class="st59" d="M520.85,679.75c.22-.06.49.06.72,0l1.43,5.72c-4.2.21-4.53,3.08-6.44,3.58-3.52.91-10.46.26-10.73-4.65.59-3.2,11.88-3.75,15.02-4.65h0Z"/>
        <path class="st31" d="M469.36,583.2c13.5,1.22,29.1,5.34,43.27,2.86,1.18-.21,3.15-1.02,2.5-2.86h11.44c.15,2.46,1.36,5.24.72,7.87h-.72c-6.83.13-13.87-.07-20.74,0-11.19.11-22.42.19-33.61,0h-.72c-2.37-.05-4.78.06-7.15,0-5.82-.15-21.08,2.87-16.45-7.51.65-1.45,18.59-.62,21.46-.36h0Z"/>
        <path class="st44" d="M458.63,611.09c4.16,1.22,3.38-2.53,7.87,0,1.71,5.39,3.95,12.97,6.44,17.88l.72,5.36c-3.73,3-5.79-.32-9.3,4.65-1.76-3.53-4.09-7.22-5.72-10.73-.31-.66-1.34-7.43-2.5-7.15-.1,4.31-2.9,1.65-4.65,2.86-.64-5.4,1.89-10.48,2.86-15.73.61,1.95,6.54,16.2,7.51,16.45,4.21,1.07-2.76-12.21-3.22-13.59h-.01Z"/>
        <path class="st28" d="M458.63,628.26c-2.92,2.9-3.47,7.75-7.87,8.94,2.58,1.86-1.32,7.44,4.29,8.94.5,1.72,1.47,3.99,2.15,5.72-2.72.07-6.73,6.44-7.87,9.3-2.45-9.16.59-17.6,1.43-26.11.36-3.69-3.71-8.02.72-11.09,1.75-1.21,4.55,1.45,4.65-2.86,1.16-.28,2.2,6.49,2.5,7.15h0Z"/>
        <path class="st47" d="M515.13,583.2c.65,1.84-1.32,2.65-2.5,2.86-14.17,2.48-29.77-1.64-43.27-2.86,7.57.77,15.4-.72,22.89-.72s15.28.72,22.89.72h-.01Z"/>
        <path class="st59" d="M465.78,605.37c.56,2.01-.02,3.41.72,5.72-4.49-2.53-3.71,1.22-7.87,0-1-3.01-1.79-6.37-2.86-9.3,2.98-1.64,3.18-3.17,7.15-3.58.72,2.95,2.66,6.43,2.86,7.15h0Z"/>
        <path class="st72" d="M455.77,601.79c1.07,2.92,1.86,6.29,2.86,9.3.46,1.38,7.43,14.66,3.22,13.59-.97-.25-6.9-14.5-7.51-16.45-.89-2.84-3.88-11.26-2.86-13.23,3.53-.56,3.48,4.58,4.29,6.79Z"/>
        <path class="st27" d="M502.97,653.29c-2.95,4.15,2.66,3.7,2.86,3.93.97,1.16,3.79,7.64,5.72,9.3-1.93,2.43-4.16-2.89-5.36-3.93-.97-.09-3.86,5.92-4.65,6.79-1.92,2.12-5.51,3.31-5.72,3.58-.5.64,1.21,1.51.72,2.15-2.65,3.41-4.01,8.73-9.3,8.94-2.48-7.8-7.8,1.31-10.73-3.22.02-1.16,10.64-11.73,12.16-13.59.18-.22,1.13-4.68,1.43-5.01.68-.72,1.67,1.21,1.79,1.07,2.42-2.8,7.33-11.53,10.01-11.44.53.02.98,1.43,1.07,1.43h0Z"/>
        <path class="st44" d="M476.51,670.45c2.47,6.03-.13,7.78-6.08,5.01-2.84-1.33-11.77-19.82-13.23-23.6-.67-1.73-1.64-4.01-2.15-5.72-.36-1.24-2.21-5.08-2.15-5.36.47-2.17,6.65-2.64,8.58-.72,2.25,2.24,5.45,14.42,7.15,17.88,1.53,3.1,6.63,9.5,7.87,12.52h.01Z"/>
        <path class="st44" d="M497.97,651.14c-4.51,4.8-4.5,5.23-10.01,8.58-2.08-.33-1.4-3.42-2.86-5.36-.17-.23-2.11.4-2.86-.72-.9-1.34.17-6.38,0-7.15-.14-.65-4.22-4.11-2.5-5.36,3.42,1.05,6.42,1.29,10.01,1.43.16,0,1.93-1.58,2.86-1.43.56.09,3.5,9.18,5.36,10.01h0Z"/>
        <path class="st0" d="M464.35,638.98c1.31,2.63,2.84,5.31,4.29,7.87.96,1.69,1.23,4.29,2.15,5.72-2.75,1.45,1.5,8.64,2.86,11.09.45.81,1.19-.77,1.43-.36,1.06,1.8.64,3.74.72,3.93.36.9,4.97-.35.72,3.22-1.23-3.01-6.34-9.42-7.87-12.52-1.71-3.46-4.91-15.64-7.15-17.88-1.93-1.93-8.11-1.46-8.58.72-.06.28,1.78,4.13,2.15,5.36-5.61-1.5-1.71-7.08-4.29-8.94,4.4-1.19,4.95-6.04,7.87-8.94,1.63,3.5,3.97,7.19,5.72,10.73h-.02Z"/>
        <path class="st59" d="M520.85,611.09c-.65,1.56-1.46,3.46-2.15,5.01-.85,1.93-1.95,3.82-2.86,5.72-5.39-6.39-12.35,12.09-14.3,3.22,3.38-1.57,9.97-19.39,11.8-19.67.81-.12,6.03,6,7.51,5.72h0Z"/>
        <path class="st27" d="M525.86,606.09c.45.62,2.07,2.01,2.15,2.15.1.18-.11.54,0,.72.18.3,1.96,3.84,2.15,4.29.67,1.58,2.07,1.46,2.15,1.79,1.05,4.61-3.53,10.66,0,14.3-.96,1.6-1.97.46-2.86-.36-2.36-2.16-1.77-6.36-5.72-7.15.5-1.18.71-4.34,2.15-6.08-3.97-2.63-3.91,1.05-7.15.36.69-1.55,1.5-3.44,2.15-5.01.9-2.17,1.91-3.84,2.86-6.44.02-.05.39.28.72-.72.88.24.65,1.08,1.43,2.15h-.03Z"/>
        <path class="st8" d="M477.23,691.91c-2.69.05-5.78.68-7.87.72,2.28-5.04,4.9-4.32,2.5-10.01l5.36,9.3h.01Z"/>
        <path class="st27" d="M471.86,682.61c2.21,5.24.16,5.06-1.96,8.93l-.46.71c1.39,0,4.11.55,4.96-.71h2.61l-5.15-8.93Z"/>
        <path class="st51" d="M528.72,676.18c-2.74.45-4.73,2.95-7.15,3.58-.22.06-.5-.06-.72,0-1.02-1.27-5.19-6.25-5.01-7.51.11-.73,8.62-13.68,8.94-7.51,4.23-1.31-.68-2.69-.36-5.36.07-.56,4.94-8.33,5.72-9.66.91,1.78,6.33,8.09,6.44,9.66-1.87,1.89-2.57,7-3.58,8.58-1.13,1.76-3.03.64-3.58,1.43-.22.32,2.76,4.05-.72,6.79h.02Z"/>
        <path class="st44" d="M550.18,590.35c-7.59-.59-15.37.57-22.89.72.64-2.63-.56-5.41-.72-7.87-.01-.24.01-.48,0-.72h23.24c.73.52.29,6.49.36,7.87h.01Z"/>
        <path class="st59" d="M526.58,591.07c.49,4.55-.77,8.66-2.15,12.87-.32.99-.7.67-.72.72-3.67-8.33-12.42,5.08-10.73-4.65,3.76,2.63,4.84-1.62,5.01-5.01-3.73-3.25-7.07.88-9.66,3.22l-2.5-7.15c6.87-.07,13.91.13,20.74,0h0Z"/>
        <path class="st59" d="M528.01,608.23c-.07-.13-1.7-1.53-2.15-2.15,2.53-6.52,16.35.93,2.15,2.15Z"/>
        <path class="st59" d="M530.15,613.24c-.19-.45-1.96-4-2.15-4.29,3.34-.83,5.29,2.41,2.15,4.29Z"/>
        <path class="st44" d="M480.8,636.12c-5.52.38-5.68-2.83-7.87-7.15-2.48-4.91-4.73-12.49-6.44-17.88-.73-2.31-.16-3.71-.72-5.72l2.15-1.79c1.24,4.27,16.83,27.32,16.45,29.32-.09.49-2.69,2.15-3.58,3.22h0Z"/>
        <path class="st44" d="M480.8,636.12c-1.81,2.19-2.27.04-2.86,1.07-.41.71.15,5.23-1.07,6.08-1.42.99-6.33,1.21-8.22,3.58-1.46-2.56-2.99-5.24-4.29-7.87,3.51-4.97,5.57-1.65,9.3-4.65l-.72-5.36c2.19,4.32,2.34,7.53,7.87,7.15h0Z"/>
        <g>
          <path class="st59" d="M471.51,591.07l1.07,6.44-.36-6.44c11.2.19,22.43.11,33.61,0l2.5,7.15c2.59-2.33,5.92-6.47,9.66-3.22-.17,3.39-1.24,7.63-5.01,5.01-1.69,9.73,7.06-3.68,10.73,4.65-.95,2.6-1.96,4.27-2.86,6.44-1.48.28-6.7-5.84-7.51-5.72-1.83.28-8.42,18.1-11.8,19.67,1.96,8.87,8.92-9.61,14.3-3.22-3.1,6.43-11.86,25.13-15.02,28.97-1.43,1.74-2.34-.19-2.86.36-1.87-.83-4.8-9.92-5.36-10.01-.93-.15-2.7,1.44-2.86,1.43-3.59-.14-6.59-.38-10.01-1.43-1.72,1.26,2.36,4.72,2.5,5.36.17.77-.9,5.81,0,7.15.75,1.12,2.69.49,2.86.72,1.46,1.95.78,5.03,2.86,5.36-3.14,1.91-3.39,6.82-10.73,1.43-.43-.32-5.8-7.58-6.44-8.58-.91-1.43-1.18-4.03-2.15-5.72,1.89-2.37,6.8-2.59,8.22-3.58,1.22-.85.66-5.37,1.07-6.08.59-1.04,1.05,1.12,2.86-1.07.88-1.07,3.48-2.73,3.58-3.22.39-2-15.21-25.05-16.45-29.32l-2.15,1.79c-.2-.72-2.14-4.2-2.86-7.15-.28-1.16-1.85-1.36-1.43-3.22.19-.83,3.32-2.21,2.86-3.93,2.37.06,4.78-.05,7.15,0l.03-.02h0Z"/>
          <path class="st50" d="M477.23,661.16l-2.15,2.15c-.24-.41-.98,1.17-1.43.36-1.36-2.45-5.61-9.64-2.86-11.09.64,1,6,8.26,6.44,8.58h0Z"/>
          <path class="st59" d="M478.3,611.09c1.1,2.59,2.68,3.66,5.36,3.93l-3.22,3.22-2.15-7.15h.01Z"/>
          <path class="st0" d="M471.51,591.07h.72l.36,6.44-1.07-6.44h0Z"/>
          <path class="st0" d="M473.29,598.22c.24.31,1.65,2.84.72,2.86-.63.01-1.72-2.17-.72-2.86Z"/>
        </g>
      </g>
    </g>
    <g id="Expanded_Art">
      <path class="st57" d="M391.51,707.13c-.25,1.67-.8,3-1.77,4.25,5.31.05,10.64-.07,15.94,0,1.57.02,3.4-.02,4.96,0,3.06.03,6.15-.01,9.21,0,2.59.01,5.2,0,7.79,0,26.46.06,56.34-.83,82.9-.71,2.74.01,9.36,1.4,14.17,1.42,54.07.21,108.18,0,162.25,0h48.89c-.03.23.05.49,0,.71-.94,4.16,2.39,6.46,47.71,8.86H214.04c16.52-1.06,4.23-7.14,5.71-7.79,1.56-.69-3.54.09,0,0,3.76-.1,3.61-1.71,7.38-1.77,26.18-.44-26.19.08,0,0,4-.01,8.04,0,12.04,0,44.36-.11,90.51,1.7,134.62,0,7.75-.3,12.35,1.87,17.71-4.96h.01Z"/>
      <path class="st52" d="M319.95,702.17c3.2-5.43,8.66-10.13,15.23-7.09,2.99,1.38,2.81,5.44,3.9,7.09-6.99-1-11.91.54-19.13,0Z"/>
      <path class="st24" d="M718.84,683.75c5.36,2.86,9.14,9.76,11.34,15.23.59,1.46-.91,2.97-.71,3.54.54,1.49,6.44,2.05,7.79,4.96,1.84,3.96-1.27,3.62-1.42,4.61h-48.89c-3.28-.33-6.02-4.96-6.38-7.79-.06-.45-.02-.96,0-1.42.47-12.13,16.1-2.66,20.9-3.54,1.08-.2,7.22-5.39,9.21-6.38,4.74-2.35,7.78,2.67,8.15-9.21h0Z"/>
      <path class="st74" d="M736.11,712.8c2.37.08,2.16,5.81,1.88,6.14l-1.57.59H224.74c-.27-.8,4.75.79,4.52,0l504.03-2.38c4.95-.74,1.99-2.03,2.83-4.36h-.01Z"/>
      <polygon class="st26" points="698.29 683.11 698.29 682.33 699.71 682.33 698.29 683.11"/>
      <path class="st30" d="M471.92,156.61c5.05-.91,11.09,1.38,15.59,3.54,1.04.5,3.55,4.09,4.25,4.25,3.38.76,17.59-7.59,20.9,4.61l-51.37.35c-.64-4.69,6.36-11.99,10.63-12.75h0Z"/>
      <path class="st42" d="M384.07,125.44c15.16-1.35,14.29,8.65,22.67,12.75,4.13,2.02,10.15,1.45,14.88,4.25,5.86,3.47,6.9,11.52,9.21,12.75,2.79,1.49,10.43.69,15.59,3.54,1.82,1.01,9.53,8.6,7.79,10.63l-148.43-1.77c-.64-.79,9.09-9.63,10.27-10.27,3.83-2.09,8.75-1.95,10.63-2.83,2.86-1.35,4.36-8.45,9.21-9.21,6.12-.96,11.29,5.24,12.75,10.63,3.4-2.83,6.78-7.82,10.63-9.92.86-.47,5.59-.45,6.02-1.06s-.4-5.1,0-6.38c2.23-7.15,11.73-12.48,18.78-13.11h0Z"/>
      <path class="st42" d="M520.1,92.84c9.6-.41,12.88,8.62,15.59,9.21,3.71.81,11.03-4,19.13-.71,3.36,1.36,6.36,6.39,8.5,7.79,1.92,1.26,6.29,1.26,7.79,2.13,3.22,1.85,3.98,6.16,6.02,8.86,2.12,2.8,6.74,2.72,5.67,7.09l-120.09.35c-.55-10.72,14.51-6.22,17.71-7.79,1.02-.5,1.24-7.34,7.09-9.21,3.07-.98,13.94-.2,14.88-.71.43-.23,1.51-6.03,2.48-7.44,2.79-4.06,10.16-9.35,15.23-9.56h0Z"/>
      <path class="st30" d="M621.42,145.27c3.5-.46,9.96.96,12.4,3.9,3.09,3.73,1.21,7.1,2.83,9.92,1.21,2.11,9.83,4.31,5.31,10.27l-53.49-.35c2.17-11.13,14.8-7.74,19.48-10.27,2.96-1.6,5.21-12.37,13.46-13.46h0Z"/>
      <path class="st42" d="M206.23,141.73c7.21-1.09,19.4.81,25.51,4.96,1.81,1.23,5.55,6.88,6.38,7.09,1.4.34,6.35-1.15,9.21-.71,10.6,1.64,12.72,18.82,1.42,21.26-10.41-2.07-84.53.74-87.86-2.13-2.86-2.47-1.16-12.33,2.83-14.88,4.84-3.09,10.53-1.02,14.17-2.13,2.79-.84,3.9-7.66,7.79-9.21s6.68.75,9.92,0,7.4-3.76,10.63-4.25h0Z"/>
    </g>
  </g>
  <g>
    <path class="st32" d="M428.1,88.28c168.63-.64,311.36,130.59,325.6,297.64,18.16,187.01-131.97,355.26-321.3,356.33-129.91,3.1-254.3-77.9-304.73-197.37C34.52,331.65,193.65,87.23,427.9,88.28h.21,0Z"/>
    <path class="st33" d="M659.98,662.45c35.55,35.18,322.95,318.61,303.88,300.41-79.72-76.12-303.88-300.41-303.88-300.41h0Z"/>
  </g>
</svg>